<?xml version="1.0" encoding="UTF-8"?>
<svg width="199px" height="64px" viewBox="0 0 199 64" version="1.1" xmlns="http://www.w3.org/2000/svg" xmlns:xlink="http://www.w3.org/1999/xlink">
    <title>Group</title>
    <g id="Page-1" stroke="none" stroke-width="1" fill="none" fill-rule="evenodd">
        <g id="Tablet" transform="translate(-505.000000, -875.000000)" fill="#0E4331">
            <g id="Group" transform="translate(505.000000, 875.000000)">
                <g id="Kin-Copy-5" fill-rule="nonzero">
                    <path d="M0,39.0422535 L10.961563,39.0422535 C9.58448221,38.0886353 9.36414928,36.2374939 10.1353145,33.320544 L12.393727,25.2428363 L19.9952129,19.5211268 L26.3297845,35.2838757 C26.8806168,36.7423507 26.4399509,37.9764449 24.8976204,39.0422535 L35.9142667,39.0422535 C33.9863536,37.5837785 33.4355213,36.5179699 32.4440231,34.0497814 L25.0628701,15.5944633 L37.8421797,5.88999514 C40.1005922,4.1510442 42.3590047,2.86085478 45.0029998,1.79504614 L33.8761871,1.79504614 C35.1981847,3.25352113 33.8211039,5.27294803 31.2872752,7.23627975 L13.7708078,20.4186498 L17.406301,7.51675571 C18.2325495,4.59980573 19.554547,2.7486644 21.4273769,1.79504614 L10.4658139,1.79504614 C11.8428947,2.7486644 12.1183108,4.59980573 11.2920624,7.51675571 L4.02107587,33.320544 C3.1948274,36.2374939 1.87282986,38.0886353 0,39.0422535 Z" id="Path"></path>
                    <path d="M35.8591834,39.0422535 L46.1046644,39.0422535 C44.8377501,38.2569208 44.5623339,36.3496843 45.4436656,33.320544 L51.3375714,12.3409422 L43.4055861,12.3409422 C44.6174172,13.1262749 44.8928333,15.0335114 44.0115016,18.0626518 L39.7150096,33.320544 C38.8887611,36.3496843 37.5667636,38.2569208 35.8591834,39.0422535 Z M47.4266619,3.53399709 C47.4266619,5.55342399 48.9689924,7.12408936 50.8969055,7.12408936 C52.8248186,7.12408936 54.3671491,5.55342399 54.3671491,3.53399709 C54.3671491,1.62676056 52.8248186,0 50.8969055,0 C48.9689924,0 47.4266619,1.62676056 47.4266619,3.53399709 Z" id="Shape"></path>
                    <path d="M48.4732433,39.0422535 L58.7187243,39.0422535 C57.45181,38.2569208 57.1763938,36.3496843 58.0577255,33.320544 L61.1423865,22.3258864 C62.3542176,18.0065566 64.7227965,16.2676056 68.0828736,16.2676056 C71.6082004,16.2676056 73.0403644,18.2309373 71.7734501,22.8307431 L68.7989556,33.320544 C67.9727071,36.3496843 66.5956264,38.2569208 64.9431294,39.0422535 L75.1335272,39.0422535 C73.8666129,38.2569208 73.6462799,36.3496843 74.4725284,33.320544 L77.5021061,22.7185527 C79.5952689,15.4261778 76.6758576,11.7799903 71.3878675,11.7799903 C67.0913754,11.7799903 64.0067145,14.2481787 61.968635,19.4650316 L63.9516313,12.3409422 L56.019646,12.3409422 C57.2314771,13.1262749 57.5068932,15.0335114 56.6255615,18.0626518 L52.3290695,33.320544 C51.502821,36.3496843 50.1808235,38.2569208 48.4732433,39.0422535 Z" id="Path"></path>
                </g>
                <g id="pio-copy-6" transform="translate(120.495283, 0.929577)" fill-rule="nonzero">
                    <path d="M0,49.2676056 L11.5497605,49.2676056 C9.14127966,48.3328408 8.64863585,46.5182973 9.46970887,43.6590166 L11.4950223,36.6757734 C13.027692,37.9404552 15.4361728,38.8202339 18.2278211,38.8202339 C24.7964053,38.8202339 30.7628693,34.0914235 33.0071355,26.338374 C35.5250928,17.8705043 32.0218479,11.5470951 25.5080019,11.5470951 C21.7858042,11.5470951 18.7752031,13.7465418 16.4214605,19.2451585 L18.4467739,12.0969567 L10.5644729,12.0969567 C11.8234515,12.8667631 12.0424043,14.7362928 11.2213313,17.7055458 L3.83167411,43.6590166 C3.01060109,46.6282696 1.64214605,48.4977993 0,49.2676056 Z M12.5350482,32.8817279 L15.6551256,22.1594253 C17.0783189,17.1556841 20.4173492,15.9459884 22.6616155,15.9459884 C27.0954098,15.9459884 29.1754614,20.1799233 27.2048862,26.8882357 C25.6174783,32.4418385 22.3879244,35.9059671 18.1730829,35.9059671 C15.8740785,35.9059671 13.6298122,34.7512575 12.5350482,32.8817279 Z" id="Shape"></path>
                    <path d="M32.4050153,38.2703722 L42.5863208,38.2703722 C41.3273422,37.5005659 41.0536512,35.6310362 41.9294624,32.6617832 L47.78645,12.0969567 L39.9041489,12.0969567 C41.1083894,12.8667631 41.3820804,14.7362928 40.5062692,17.7055458 L36.2366894,32.6617832 C35.4156164,35.6310362 34.1018996,37.5005659 32.4050153,38.2703722 Z M43.9000377,3.46412852 C43.9000377,5.44363053 45.4327073,6.98324321 47.3485444,6.98324321 C49.2643814,6.98324321 50.7970511,5.44363053 50.7970511,3.46412852 C50.7970511,1.59459884 49.2643814,0 47.3485444,0 C45.4327073,0 43.9000377,1.59459884 43.9000377,3.46412852 Z" id="Shape"></path>
                    <path d="M59.1172577,38.8202339 C65.6858419,38.8202339 71.7070441,34.2013959 73.8418339,26.668291 C76.305053,17.8705043 71.6523059,11.5470951 64.0436958,11.5470951 C57.4203734,11.5470951 51.4539095,16.1659331 49.3191196,23.699038 C46.7464241,32.4968247 51.5086477,38.8202339 59.1172577,38.8202339 Z M55.39506,24.3038858 C57.1466824,18.1454351 59.7741161,14.5163481 63.8794812,14.5163481 C68.9153958,14.5163481 69.9006834,18.7502829 67.7658935,26.0634432 C66.0142711,32.2218939 63.3868374,35.8509809 59.2814723,35.8509809 C54.300296,35.8509809 53.3150083,31.617046 55.39506,24.3038858 Z" id="Shape"></path>
                </g>
                <g id="Group-Copy" transform="translate(102.028991, 26.752985) rotate(12.000000) translate(-102.028991, -26.752985) translate(81.711606, 9.222577)">
                    <path d="M21.3818121,0.000444962907 L20.6358597,-9.26950507e-14 C17.6588743,-9.26950507e-14 15.0040162,0.442162161 12.6756484,1.334688 L12.4084398,1.43967087 C9.99458601,2.36219927 7.91681837,3.57291088 6.20209668,5.06735565 L5.98049841,5.26389193 C3.163325,7.70900353 1.50264819,11.9112596 1.18942454,16.02689 C1.08937227,17.3415358 1.14076685,18.3419625 1.32007239,19.6196417 L1.5068563,20.8993964 L1.53677233,21.1556651 L1.54856848,21.3194946 L1.55298881,21.4537016 L1.55428326,21.5279352 C1.5569348,21.7058093 1.54745185,21.8697975 1.52476799,22.0302896 L1.51445139,22.1279 L1.51100676,22.2260038 C1.51100676,22.7092646 1.40346461,23.1593558 1.1616572,23.7779596 L1.06083643,24.0271564 L0.864932437,24.4986576 L0.772775854,24.7314595 C0.730967316,24.8410618 0.695126895,24.9419816 0.663290282,25.0410385 L0.603449553,25.2354873 L0.548456598,25.4011841 C0.53072305,25.4514253 0.513460939,25.497174 0.496292261,25.5399253 L0.462806469,25.6194692 L0.328784264,25.9189796 C0.323247963,25.9320118 0.318353468,25.9437916 0.314324059,25.9538579 C0.252908757,26.1072853 0.208042596,26.2597073 0.177124108,26.4266176 L0.15358672,26.5673555 L0.116459463,26.7196041 C-0.03495184,27.3460147 -0.0476042069,27.9452363 0.131218761,28.87847 C0.474844804,30.671771 2.10515924,32.324478 3.8640062,32.5269481 L4.07821209,32.5454888 L4.21560857,32.5534503 L4.34696037,32.5569181 L4.43554241,32.5563348 L4.52799644,32.5531565 L4.67967614,32.5430003 L4.85482445,32.5256603 L5.06229536,32.5003294 L5.31094284,32.4662006 L5.96718349,32.3683212 L6.5726801,32.2755404 L6.90943721,32.2267057 C6.96312917,32.2192227 7.01566794,32.2120642 7.06714939,32.2052252 L7.36411725,32.167983 L7.64031155,32.1381588 C7.68486847,32.1337924 7.72875158,32.1297248 7.77205675,32.1259508 L8.02571959,32.1067882 C8.19122734,32.0963065 8.35055618,32.0903565 8.5098422,32.0886072 C8.94276411,32.0838527 9.32934167,32.114982 9.67389407,32.1846324 L10.2083227,32.2944414 L10.5981582,32.3793482 L10.7843026,32.4231996 L10.8954386,32.4510365 C11.1425209,32.514544 11.3206496,32.5724786 11.485495,32.6424431 L11.660985,32.7221346 L11.7876931,32.7857853 L11.9700082,32.8898454 L12.4323818,33.17551 L13.1967732,33.6575888 C14.6790134,34.5939363 16.2036262,35.0023626 18.461029,35.0552619 L18.8441663,35.0608161 L19.2415841,35.0599638 C19.3090499,35.0592977 19.3771403,35.0583721 19.4458701,35.0571906 L19.8660405,35.0470612 L20.3022671,35.0309687 C20.376349,35.0277995 20.4511295,35.0243893 20.5266235,35.0207417 L20.9882663,34.9960371 L21.4677411,34.9658129 C23.2518559,34.8455947 24.8728984,34.3722832 26.4103072,33.6365862 L26.4823664,33.6016743 C26.5762205,33.5556804 26.6779612,33.5039119 26.784226,33.4484716 L27.1132306,33.273238 L27.4492056,33.0885899 C27.5046614,33.0577316 27.5595672,33.0270067 27.6135024,32.9966781 L27.9221057,32.8215643 L28.2005776,32.6615061 L28.6089177,32.7381508 L30.5973749,33.139034 L31.0239319,33.2210315 L31.4237736,33.2938432 L31.7990236,33.357488 L32.1518059,33.4119845 L32.4842442,33.4573515 C32.6457313,33.4777558 32.8003858,33.4947435 32.9494024,33.5083253 L33.2402723,33.5309506 C33.4296459,33.5430108 33.6104125,33.5490284 33.7854036,33.5490284 C35.8161428,33.5490284 37.557058,32.5120662 39.5050976,30.2291545 C39.5788766,30.1426927 39.6417864,30.0473372 39.6923931,29.9452614 L39.7749304,29.7746699 C40.7686787,27.6691312 40.8681442,25.5127668 40.242768,24.1390122 L40.2215531,24.0943421 L40.1947035,23.9861884 C40.1094326,23.6259468 40.0343772,23.1713829 39.9698139,22.6357477 L39.9283292,22.2667925 C39.9150211,22.1399008 39.9022342,22.0091511 39.8899715,21.8746886 L39.8547589,21.4603086 L39.8199148,20.9844859 L39.7888633,20.4880024 C39.7839721,20.403293 39.7792148,20.3175424 39.7745795,20.2306605 L39.7481352,19.6950717 L39.6902776,18.2408342 C39.6869122,18.153743 39.682635,18.0611296 39.6774822,17.9638006 L39.6594335,17.658473 L39.6363493,17.3296906 L39.6084472,16.9822925 L39.5782826,16.6458611 C39.5721469,16.5805579 39.5664129,16.5210969 39.560516,16.4613583 C39.5533006,16.3882618 39.5403383,16.3158617 39.5217522,16.2448444 L37.5212871,8.60111462 C37.4924168,8.49080201 37.4501592,8.38452078 37.3954763,8.28469043 C36.3968926,6.4616549 34.6527951,4.28253105 32.5841885,2.61007496 C32.533185,2.56883891 32.4793278,2.53134315 32.4230294,2.49787481 C32.3022238,2.4260582 32.1827381,2.35621836 32.0644026,2.28830459 L31.7126769,2.09029073 L31.3668342,1.90352895 C31.2524206,1.84311655 31.1388178,1.78452879 31.025856,1.72771494 L30.6887242,1.56254443 C29.2346828,0.869426875 27.8603003,0.467529942 26.1927281,0.245431663 L25.8025295,0.197319191 C25.5387011,0.167304383 25.2672544,0.141342303 24.9868319,0.119027226 L24.5592965,0.0882391483 L24.117279,0.0626172821 C24.042346,0.0587605836 23.9667671,0.055106465 23.8905212,0.051648587 L23.4248713,0.0332054894 L22.9421937,0.0191678712 C22.8602719,0.0171784863 22.7775982,0.0153599842 22.6941513,0.0137060253 L22.1840229,0.00570607688 L21.6543212,0.00135087524 C21.5643499,0.000911832032 21.4735206,0.000611974401 21.3818121,0.000444962907 Z M20.3056344,2.77014239 L20.6350143,2.7676773 L21.6366192,2.76941117 L22.1363918,2.77331067 L22.6152368,2.78044556 L23.0742648,2.79111448 L23.514587,2.80561605 L23.9373142,2.82424892 L24.3435573,2.84731172 L24.7344272,2.87510309 L25.1110348,2.90792166 C27.0835513,3.09689081 28.4949443,3.51309574 30.1035997,4.36040505 L30.4077193,4.52437732 C30.5099866,4.58075193 30.6132095,4.63886031 30.7175733,4.69875224 L30.9461937,4.8317862 L31.0765258,4.9390315 C32.6240935,6.23509372 33.9611777,7.86855221 34.7900434,9.25994711 L34.9182826,9.48133683 L36.845209,16.8450477 L36.8800273,17.2259287 L36.9051326,17.538554 L36.92588,17.8336192 L36.9420211,18.1055707 L37.0119974,19.8228346 C37.0426763,20.4938734 37.0785985,21.1016742 37.1244114,21.6808789 C37.2330799,23.0547579 37.387837,24.1535499 37.6193689,24.972613 C37.6383138,25.0396321 37.6622273,25.1050611 37.6908849,25.1683503 L37.7374013,25.2616106 C37.8248777,25.421665 37.905843,25.8287541 37.8893727,26.3386238 L37.8816245,26.4936569 C37.8429658,27.0669175 37.6910817,27.6923234 37.4098498,28.3460257 L37.3154138,28.5547365 L37.1818789,28.7071067 C35.8342042,30.2204758 34.8334588,30.7808895 33.7854036,30.7808895 L33.6880767,30.7799144 L33.4815582,30.772094 C33.3384018,30.7642627 33.1840185,30.7511844 33.0167746,30.7327894 L32.7560591,30.7012005 L32.4748276,30.6615842 C32.3775283,30.647035 32.2766054,30.6311392 32.1718549,30.6138881 L31.8459157,30.5580599 L31.4957851,30.4940473 L30.7692653,30.3518491 L29.0422037,30.003295 L28.5827892,29.9188434 L28.3479264,29.8810576 L28.125912,29.8482362 C27.8576823,29.8095062 27.5841123,29.852056 27.339818,29.9705016 L26.4194545,30.4981989 L25.9622626,30.7540341 L25.6952511,30.8995322 L25.4495519,31.0291326 L25.2381207,31.134739 C23.9927634,31.7306805 22.6984236,32.1086015 21.2855202,32.2038064 L20.8520293,32.2312886 L20.4376509,32.2539235 L20.0416397,32.2716049 L19.6632507,32.2842262 C19.601613,32.2859022 19.5406785,32.287363 19.4804317,32.2886062 L19.1270788,32.2934383 C18.5514971,32.297083 18.041579,32.2785369 17.5818007,32.2355843 L17.3118263,32.2068662 C16.2550022,32.080137 15.4690994,31.8102743 14.7395148,31.3666503 L13.5638455,30.628014 L13.2515765,30.4387937 L13.0352632,30.3184623 L12.8958704,30.24921 L12.7012774,30.1588466 C12.4032612,30.0218328 12.1064731,29.9152934 11.7525569,29.8169148 L11.504391,29.7514904 L11.2209287,29.6835941 L10.8841636,29.6093041 L10.2111287,29.4702614 C9.66610056,29.3600852 9.09261046,29.3139047 8.48007883,29.3206317 C8.27812738,29.3228496 8.08000099,29.3299675 7.87830293,29.3422542 L7.57215249,29.3645944 C7.41681329,29.3777364 7.2573847,29.3938614 7.09074619,29.4130827 L6.74693137,29.4556874 C6.6877185,29.4634874 6.62747339,29.4716399 6.56608045,29.4801491 L6.18302433,29.5355171 L4.93990679,29.7224769 L4.70954386,29.7529922 L4.49802231,29.7754235 L4.40089631,29.7817654 L4.34474546,29.7834664 L4.29127416,29.783353 C4.25688349,29.7826879 4.22454706,29.7808969 4.19150776,29.7782971 C3.67609927,29.7377404 2.94679199,29.0122309 2.82031807,28.3521942 L2.80089959,28.2479283 L2.7703377,28.0644978 C2.7240602,27.7563542 2.73009723,27.593719 2.76658755,27.4232795 L2.82792546,27.1656256 C2.83160498,27.1489236 2.83513616,27.1323169 2.83861452,27.1153147 L2.85549032,27.0260177 L2.86401362,26.9681316 L2.98463669,26.7006682 C3.06285686,26.517858 3.13613117,26.320136 3.21051824,26.0844225 L3.25533248,25.9382507 C3.26463135,25.9070582 3.27574039,25.8729623 3.2890135,25.8350022 L3.33567892,25.7085676 L3.42902921,25.4768163 L3.63686203,24.9761537 L3.71552423,24.778762 C4.04481466,23.9341414 4.22346954,23.223247 4.24731161,22.4144841 L4.24860684,22.3213491 L4.23630234,22.421718 C4.27995007,22.1129032 4.29777575,21.8046445 4.29302931,21.4862376 L4.28751315,21.2337238 L4.27879811,21.0553612 L4.26783119,20.9177402 L4.23745445,20.6474327 L4.18699939,20.2804411 L4.07174461,19.504241 C3.88618324,18.2688443 3.83099068,17.4141748 3.92041533,16.2391715 C4.17730202,12.8637857 5.51806633,9.41306547 7.64526051,7.47066445 L7.78510248,7.34614084 C9.23361849,6.03909213 11.0003211,4.97212895 13.1099531,4.13305118 L13.3997581,4.02004285 C15.39028,3.21896729 17.6839647,2.8022019 20.3056344,2.77014239 Z" id="Path-Copy-7" fill-rule="nonzero"></path>
                    <path d="M34.9490022,7.07451758 C34.8989637,7.07765179 34.8491332,7.08356046 34.7997357,7.0922169 C33.3437977,7.34735664 31.9192851,7.62071556 30.52619,7.91230951 C30.4057609,7.93751698 30.2892403,7.97900345 30.1797709,8.03564997 C28.4594587,8.92585073 27.7822455,10.6961648 28.0830714,13.0109095 L28.0920352,13.0699766 C28.2327559,13.8801219 28.5734773,14.648148 29.0993433,15.3647392 C29.7857111,16.3000441 30.8545144,16.7481811 32.1642449,16.7481811 C32.2371224,16.7481811 32.3098836,16.7423022 32.3818353,16.7306005 L34.3622403,16.4040916 L35.5655736,16.1964498 L36.1097046,16.0963713 L36.5893017,16.0000269 L36.8364322,15.9432161 L36.9805564,15.9041964 L37.0590056,15.8783427 C37.5004776,15.7149855 38.10593,15.2982755 38.4709662,14.9683763 L38.6303544,14.8191129 C38.6944417,14.7576697 38.7546864,14.695868 38.8169243,14.625928 C38.9807567,14.441821 39.1300701,14.2317646 39.2649322,13.9851261 C39.5336704,13.4936523 39.7271816,12.8875278 39.8389449,12.1435697 C39.9811827,11.1967577 39.770013,10.2929247 39.3370765,9.45912584 L39.2622314,9.31946203 C39.0865572,9.0017378 38.9048634,8.7413541 38.7429654,8.54323866 L38.6575516,8.44236203 L38.70801,8.50916018 C37.9118026,7.4144997 36.6051168,6.97078554 34.9490022,7.07451758 Z M36.5485603,10.2102547 L36.599423,10.2690372 C36.619783,10.2912693 36.6476841,10.3254522 36.6803632,10.3698662 L36.7512734,10.471826 C36.8017024,10.548214 36.8573507,10.6407522 36.9116686,10.7453639 C37.0953469,11.0991127 37.1745071,11.4379285 37.1309207,11.7280637 C37.072359,12.1178822 36.9904104,12.3952042 36.898542,12.5858782 L36.833831,12.7075565 L36.8138323,12.7366512 L36.7844282,12.7696197 L36.6583154,12.8927376 L36.6275974,12.9204699 C36.6011373,12.9432242 36.5669947,12.9705075 36.5288292,12.9997499 L36.4059241,13.0907848 C36.3846484,13.1060803 36.3632819,13.121223 36.3422821,13.1358919 L36.2243432,13.2156484 L36.138507,13.2687465 L35.9242041,13.3146088 L35.4566864,13.4038614 L34.6701474,13.543597 L33.0670584,13.8139907 L32.0632723,13.9786398 L31.9763289,13.9747429 C31.5981021,13.9519796 31.4031615,13.8571902 31.2993902,13.7157824 L31.2102291,13.5888543 C31.012059,13.2935088 30.882664,13.0036939 30.8150541,12.7150264 L30.7946325,12.6157928 L30.7828299,12.5183932 C30.6670641,11.4817143 30.8395178,10.914096 31.2592202,10.6041463 L31.2949669,10.5789039 L31.9037261,10.453776 C32.7295467,10.2867534 33.5667485,10.1260987 34.4153298,9.97181537 L35.1894492,9.83335183 L35.3502029,9.82765825 C35.9733281,9.8156761 36.3152169,9.93288796 36.4747742,10.1157318 L36.5485603,10.2102547 Z" id="Path-2-Copy-7" fill-rule="nonzero" transform="translate(33.948464, 11.904022) rotate(-8.000000) translate(-33.948464, -11.904022) "></path>
                    <path d="M22.7949303,11.3305288 L20.3119736,11.7210845 L19.4835017,11.8568444 L18.689751,11.9923976 L18.1539464,12.0897059 L17.8069926,12.157945 L17.593292,12.2043765 L17.4696642,12.2345577 C17.4576561,12.2376934 17.4462217,12.240757 17.4353586,12.2437488 C16.4736066,12.5086305 15.6002834,13.2463637 15.1206645,14.1388922 L14.961756,14.4553318 L14.876147,14.632907 C14.8628256,14.6612302 14.8498134,14.6892856 14.8368643,14.7176261 C14.3224361,15.8435096 14.1642462,16.9221281 14.5890928,18.1365805 L14.6399683,18.2804366 L14.736921,18.5444653 L14.8290962,18.7803946 C14.9195307,19.0036657 15.005715,19.1910493 15.0963972,19.3613294 C15.2616059,19.6715531 15.4413141,19.9231743 15.6697898,20.1727447 L15.7751783,20.2848709 L15.893621,20.4035933 L16.1275447,20.6286362 C16.9942124,21.4552381 18.1558202,21.5761566 19.7174038,21.3539823 L20.2617156,21.2699909 L21.1128836,21.1255823 L21.9066922,20.9826159 L22.3443336,20.9011213 L23.058468,20.7635734 L23.598251,20.6549612 L24.0817219,20.5528349 L24.369196,20.4889638 C24.4146375,20.4786249 24.4588141,20.4684442 24.5016811,20.4584293 C24.6357982,20.427096 24.7644746,20.3755071 24.8833722,20.3054019 L25.0186301,20.2248838 L25.2705169,20.0698644 C26.310472,19.4130966 26.699833,18.9303226 27.2034208,17.8108103 C27.7164962,16.6702065 27.6895834,15.6636435 27.3516242,14.4861055 C27.0768563,13.5287424 26.6197699,12.8315662 25.7329992,12.0954696 C24.9346785,11.4327942 23.9253972,11.1877227 22.7949303,11.3305288 Z M23.9944911,14.234549 C24.4559034,14.6175612 24.6008589,14.8386562 24.720991,15.2572278 C24.8937547,15.8591819 24.9037837,16.2342739 24.7099302,16.6652242 L24.6345385,16.831416 L24.5646141,16.9788559 C24.419889,17.2721147 24.308368,17.4063035 24.0184655,17.5996779 L23.8712278,17.693925 L23.684041,17.8069759 L23.3521747,17.8796212 L22.7069809,18.0123452 L22.1615813,18.1191113 L21.4185878,18.2587814 L20.8688777,18.3584085 L20.1396257,18.4853463 L19.6932549,18.5578882 L19.6280369,18.5676697 C19.1106344,18.6531049 18.6975908,18.6871564 18.3747855,18.6674238 L18.3039424,18.6621853 L18.1850756,18.648881 C18.1677963,18.6464855 18.1517819,18.6440462 18.1370303,18.6416311 L18.0075142,18.615465 L17.7410753,18.3569345 L17.6803335,18.2928477 C17.6058059,18.211439 17.5617008,18.1496846 17.5083193,18.0494466 L17.4594467,17.9516756 C17.4509598,17.933713 17.4422894,17.9148791 17.4334158,17.8951177 L17.3775821,17.7649668 L17.3159418,17.6098493 L17.2475624,17.4270613 L17.1715113,17.2138988 C17.0244212,16.7934318 17.0806932,16.4097402 17.3236051,15.8781006 L17.3809179,15.756362 L17.5136705,15.4871726 C17.6400214,15.2299899 17.9308137,14.9763834 18.1555479,14.914488 L18.3218146,14.8755052 L18.5280226,14.8339162 L18.9573822,14.7545917 L19.5283112,14.6554462 L21.237651,14.3753573 L23.1717477,14.0720865 C23.5266251,14.0277345 23.7718846,14.0764109 23.9481105,14.1992291 L23.9944911,14.234549 Z" id="Path-3-Copy-7" fill-rule="nonzero" transform="translate(20.971434, 16.371619) rotate(-8.000000) translate(-20.971434, -16.371619) "></path>
                    <path d="M31.0897129,18.3157463 C30.7349568,18.3974619 30.3672874,18.4982982 29.9686854,18.6198102 L29.5752002,18.7430777 L28.9958438,18.9322689 C27.4217534,19.4475073 26.879861,20.7029556 26.6822771,22.6166897 C26.6787239,22.6511051 26.6764489,22.685643 26.6754571,22.7202307 C26.632504,24.2180719 26.8722997,24.9743553 27.9417781,25.9706096 C28.0188088,26.0423662 28.1037321,26.1049535 28.1948819,26.1571433 C28.6519229,26.4188327 29.0572134,26.4599939 29.7335402,26.3795777 L29.9694637,26.3484051 C30.0106049,26.3425045 30.0526934,26.3362625 30.0957844,26.3296962 L30.4644031,26.2702019 L31.3731076,26.1116704 L31.4123665,26.1071921 L31.4346445,26.1058088 C32.4056283,26.0521604 34.1814749,25.3900669 34.8280223,24.6368969 C35.4261152,23.940172 35.6466212,23.1650419 35.7679752,21.9896455 C35.915425,20.5614948 35.5534678,19.3528058 34.2942427,18.4823288 C34.2379513,18.4434158 34.1788625,18.4088065 34.1174692,18.37879 C33.3102539,17.9841239 32.3433652,18.0269761 31.0897129,18.3157463 Z M32.8703811,20.8676148 L32.8850865,20.8817245 C33.0520129,21.0561486 33.0872814,21.2803355 33.043708,21.7023734 L33.0308505,21.820203 L33.00327,22.0340814 L32.9731466,22.2202839 C32.9260214,22.4796501 32.8700903,22.6511398 32.8043457,22.7596343 L32.7827313,22.7919327 L32.7346078,22.8239673 L32.6564485,22.8689767 C32.5188438,22.944023 32.3365445,23.0248548 32.1327796,23.100825 L31.9765702,23.1564888 L31.8226733,23.2068344 L31.6767244,23.2508048 L31.5443591,23.2873432 L31.431213,23.3153927 C31.41427,23.3193015 31.3983626,23.3228126 31.3836082,23.3259039 L31.3098575,23.3392384 L31.2081757,23.3471361 L31.0433206,23.3648881 L30.8540214,23.3924951 L30.5567265,23.4431996 L30.0114783,23.5401691 L29.8158383,23.572156 L29.6184176,23.6008271 L29.4944935,23.6159154 L29.4827533,23.597346 C29.4273904,23.5020564 29.4088653,23.3977313 29.4059523,23.2216459 L29.406363,23.0751466 L29.4118653,22.8542158 L29.4191129,22.7889355 L29.4464792,22.5764808 L29.4766444,22.3867917 L29.5094009,22.2190299 C29.5943581,21.8263358 29.701662,21.6313512 29.8167123,21.575135 L29.842948,21.5646922 L30.2727704,21.4238168 L30.6438783,21.3056555 L30.7596991,21.2700051 C31.1024445,21.1655207 31.411622,21.0807263 31.6983973,21.0146696 C32.0719675,20.9286203 32.3914213,20.878602 32.6420663,20.8674935 L32.7531513,20.8649465 L32.8703811,20.8676148 Z" id="Path-6-Copy-7" fill-rule="nonzero" transform="translate(31.234838, 22.253694) rotate(-8.000000) translate(-31.234838, -22.253694) "></path>
                    <path d="M22.4699621,12.8717114 C22.9179923,12.7358542 22.9934093,12.8131554 23.25258,12.8927578 C23.5117508,12.9723603 24.5327393,13.473519 25.0011842,14.7486819 C25.3134808,15.5987905 25.267358,16.4247706 24.8628158,17.2266221 C24.5742905,17.8539481 24.0024136,18.170138 23.1471851,18.1751916 C21.8643424,18.1827722 20.60024,17.5596799 20.410905,15.872903 C20.22157,14.1861262 22.0378365,13.0027458 22.4699621,12.8717114 Z" id="Path-4-Copy-7" transform="translate(22.801194, 15.486379) rotate(-8.000000) translate(-22.801194, -15.486379) "></path>
                    <path d="M34.7381327,8.91203078 C36.100581,8.52073973 37.0272763,8.51938398 37.5182186,8.90796353 C38.1840932,9.43500153 38.484784,9.7497616 38.4056987,10.5177329 C38.3973209,10.5990873 38.053528,11.7682623 37.5182502,12.9223905 C37.1613983,13.6918092 36.7729267,13.9686509 36.3528354,13.7529155 C34.4996674,13.6018728 33.5188214,12.8477468 33.4102972,11.4905375 C33.301773,10.1333282 33.7443849,9.27382596 34.7381327,8.91203078 Z" id="Path-5-Copy-7" transform="translate(35.906168, 11.220661) rotate(-8.000000) translate(-35.906168, -11.220661) "></path>
                </g>
                <g id="BLOG" transform="translate(139.900000, 50.958000)" fill-rule="nonzero">
                    <path d="M0,12.042 L7.956,12.042 C11.25,12.042 12.51,11.826 13.194,11.106 C13.644,10.656 13.86,9.846 13.86,8.64 C13.86,6.75 13.338,5.976 11.898,5.742 C12.996,5.328 13.374,4.68 13.374,3.114 C13.374,2.322 13.284,1.89 13.032,1.44 C12.618,0.666 11.79,0.198 10.674,0.108 C10.152,0.072 10.152,0.072 7.956,0.036 L0,0.036 L0,12.042 Z M1.602,5.202 L1.602,1.44 L7.956,1.44 C10.782,1.494 10.872,1.512 11.268,1.818 C11.574,2.052 11.736,2.592 11.736,3.312 C11.736,4.122 11.538,4.608 11.106,4.878 C10.674,5.148 10.152,5.202 7.956,5.202 L1.602,5.202 Z M1.602,10.638 L1.602,6.606 L7.956,6.606 C11.214,6.66 11.214,6.66 11.7,7.002 C12.042,7.254 12.222,7.794 12.222,8.604 C12.222,10.404 11.736,10.638 7.956,10.638 L1.602,10.638 Z" id="Shape"></path>
                    <polygon id="Path" points="15.372 0.036 15.372 12.042 26.442 12.042 26.442 10.638 16.974 10.638 16.974 0.036"></polygon>
                    <path d="M35.01,0 C33.984,0 31.896,0.054 31.194,0.09 C29.556,0.198 28.926,0.36 28.314,0.81 C27.432,1.494 27.144,2.772 27.144,5.994 C27.144,7.92 27.216,9.054 27.414,9.846 C27.63,10.818 28.404,11.574 29.394,11.79 C30.276,11.988 32.346,12.078 35.55,12.078 C39.222,12.078 40.536,11.844 41.256,11.106 C41.922,10.386 42.174,9.018 42.174,6.084 C42.174,5.184 42.12,3.96 42.048,3.348 C41.922,2.052 41.706,1.458 41.202,0.972 C40.428,0.198 39.114,0 35.01,0 Z M34.092,1.44 C37.17,1.44 38.088,1.476 39.006,1.62 C39.816,1.746 40.248,2.106 40.356,2.79 C40.464,3.33 40.536,4.77 40.536,6.12 C40.536,7.236 40.446,8.532 40.338,9.18 C40.194,9.9 39.816,10.278 39.096,10.404 C38.304,10.548 36.612,10.638 34.884,10.638 C34.11,10.638 32.076,10.584 31.428,10.548 C30.096,10.458 29.61,10.332 29.286,9.99 C28.908,9.576 28.782,8.496 28.782,5.868 C28.782,3.582 28.962,2.43 29.412,2.034 C29.88,1.602 31.104,1.44 34.092,1.44 Z" id="Shape"></path>
                    <path d="M50.31,5.958 L50.31,7.362 L56.574,7.362 C56.538,9.108 56.448,9.63 56.124,9.99 C55.674,10.476 54.63,10.638 51.84,10.638 C46.17,10.638 45.63,10.53 45.324,9.288 C45.216,8.802 45.126,7.308 45.126,5.832 C45.126,3.42 45.27,2.466 45.72,2.052 C46.206,1.584 47.448,1.44 50.814,1.44 C51.732,1.44 53.244,1.476 53.892,1.53 C55.242,1.602 55.728,1.728 56.052,2.034 C56.322,2.304 56.43,2.754 56.448,3.798 L58.086,3.798 C58.068,2.754 57.996,2.304 57.744,1.764 C57.384,0.954 56.484,0.36 55.422,0.216 C54.684,0.108 52.2,0 50.526,0 C45.522,0 44.298,0.396 43.848,2.16 C43.614,3.042 43.488,4.482 43.488,6.048 C43.488,7.686 43.614,9.072 43.83,9.936 C44.082,10.98 44.892,11.646 46.044,11.844 C46.98,11.988 49.032,12.078 51.21,12.078 C53.82,12.078 55.53,11.952 56.286,11.682 C57.294,11.34 57.726,10.818 57.978,9.684 C58.122,8.964 58.158,8.352 58.176,5.958 L50.31,5.958 Z" id="Path"></path>
                </g>
            </g>
        </g>
    </g>
</svg>