<?xml version="1.0" encoding="UTF-8"?>
<svg width="227px" height="72px" viewBox="0 0 227 72" version="1.1" xmlns="http://www.w3.org/2000/svg" xmlns:xlink="http://www.w3.org/1999/xlink">
    <title>Artboard</title>
    <g id="Artboard" stroke="none" stroke-width="1" fill="none" fill-rule="evenodd">
        <g id="BLOG-Copy" transform="translate(90.692000, 39.628000)" fill="#1F4232" fill-rule="nonzero">
            <path d="M0,24.372 L17.28,24.372 C25.344,24.336 25.74,24.3 27.072,23.832 C29.232,23.112 30.132,21.348 30.132,17.928 C30.132,14.076 29.16,12.672 25.992,12.132 C28.404,11.448 29.232,10.044 29.232,6.624 C29.232,2.268 27.936,0.756 24.012,0.468 C22.932,0.396 22.932,0.396 17.244,0.36 L0,0.36 L0,24.372 Z M6.948,9.828 L6.948,6.012 L17.244,6.012 C20.556,6.048 20.664,6.048 21.06,6.12 C21.78,6.3 22.14,6.84 22.14,7.848 C22.14,8.712 21.852,9.324 21.348,9.54 C20.88,9.756 19.836,9.828 17.244,9.828 L6.948,9.828 Z M6.948,18.612 L6.948,14.616 L17.28,14.616 C21.492,14.616 21.492,14.616 21.888,14.724 C22.716,14.904 23.04,15.408 23.04,16.524 C23.04,17.532 22.788,18.072 22.176,18.324 C21.636,18.576 21.636,18.576 17.28,18.612 L6.948,18.612 Z" id="Shape"></path>
            <polygon id="Path" points="32.688 0.36 32.688 24.372 57.42 24.372 57.42 18.252 40.356 18.252 40.356 0.36"></polygon>
            <path d="M75.528,0 C65.556,0 63.252,0.288 61.416,1.656 C59.616,3.06 59.04,5.544 59.04,12.204 C59.04,19.224 59.58,21.636 61.416,23.076 C63.252,24.444 65.592,24.732 75.6,24.732 C85.464,24.732 87.804,24.444 89.64,23.076 C91.476,21.636 92.016,19.26 92.016,12.348 C92.016,5.472 91.476,3.096 89.64,1.656 C87.804,0.288 85.536,0 75.528,0 Z M75.528,6.228 C82.152,6.228 83.016,6.336 83.844,7.308 C84.492,8.1 84.708,9.54 84.708,13.032 C84.708,15.912 84.456,16.992 83.628,17.64 C82.692,18.36 81.396,18.504 75.6,18.504 C69.66,18.504 68.364,18.36 67.428,17.64 C66.564,16.956 66.348,15.984 66.348,12.996 C66.348,9.936 66.492,8.568 66.924,7.74 C67.644,6.336 68.364,6.228 75.528,6.228 Z" id="Shape"></path>
            <path d="M109.44,10.764 L109.44,15.552 L119.052,15.552 C119.052,17.424 118.944,17.856 118.548,18.252 C117.864,18.864 116.532,18.972 110.304,18.972 L106.02,18.9 C103.932,18.828 103.284,18.72 102.708,18.216 C101.88,17.604 101.664,16.272 101.664,12.276 C101.664,6.048 101.7,6.012 110.34,6.012 C115.812,6.012 117.54,6.156 118.26,6.66 C118.728,6.984 118.8,7.308 118.836,8.676 L126.144,8.676 C126.108,5.148 125.82,3.672 124.812,2.484 C123.228,0.612 119.88,0 110.988,0 C102.6,0 98.712,0.468 96.984,1.692 C94.968,3.096 94.356,5.508 94.356,11.988 C94.356,19.872 94.752,21.636 96.876,23.04 C98.892,24.408 101.484,24.732 109.692,24.732 C116.172,24.732 118.728,24.588 121.212,24.084 C124.092,23.508 125.64,21.852 125.928,19.044 C126.036,17.892 126.18,13.716 126.18,11.412 L126.18,10.764 L109.44,10.764 Z" id="Path"></path>
        </g>
        <g id="Group-Copy-2" transform="translate(43.500000, 35.500000) rotate(12.000000) translate(-43.500000, -35.500000) translate(5.000000, 3.000000)" fill="#1F4232">
            <path d="M40.5387501,0.000835662187 L39.1084237,4.83109714e-13 C33.4557105,4.83109714e-13 28.4203418,0.822033881 24.0105734,2.47894048 L23.5045308,2.6738278 C18.918081,4.39215523 14.9804649,6.64122081 11.7347382,9.41405792 L11.3153098,9.7787021 C6.01045236,14.2921903 2.87046535,22.0809721 2.27829807,29.7082668 C2.08927183,32.1429824 2.18621125,33.9933517 2.52594822,36.3658012 L2.86425303,38.6267413 L2.93546476,39.1888642 L2.95523571,39.4020175 L2.97033517,39.6594298 L2.97876444,40.0028635 C2.98418051,40.3590215 2.9646747,40.6896783 2.91785456,41.0144016 C2.90322163,41.1158891 2.89587748,41.2182774 2.89587748,41.320795 C2.89587748,42.291414 2.6785137,43.1841227 2.19766129,44.390825 L2.04736532,44.757782 L1.62473383,45.7553284 L1.45297409,46.1805545 C1.37522648,46.3802515 1.30886803,46.5632971 1.25025724,46.7419426 L1.13552471,47.1073642 L1.02468443,47.4343628 C0.988774355,47.53397 0.95365898,47.6251203 0.918612325,47.7106199 L0.84716577,47.876638 L0.600441729,48.4163056 C0.588755971,48.4430793 0.578605325,48.4668891 0.570588919,48.4865205 C0.463550713,48.7486462 0.385725422,49.0076986 0.331874732,49.2931159 L0.290590247,49.5407666 L0.210824137,49.8653854 C-0.0642780953,50.9810642 -0.0871646582,52.0435925 0.243625872,53.7358424 C0.88060586,56.9944887 3.97357122,60.0106315 7.22192375,60.2611949 L7.4897887,60.2799324 L7.73718966,60.2914102 L7.98051809,60.294144 L8.14856906,60.2903759 L8.32695185,60.2816222 L8.62452224,60.2581817 L8.9726583,60.2210499 L9.70977317,60.1247076 L12.0965783,59.7710716 L12.7493453,59.6783071 L13.3490924,59.6002981 L13.9047901,59.5365855 C14.2625655,59.4987739 14.5969551,59.4701873 14.9199195,59.4502137 L15.3972925,59.4266365 C15.5545573,59.4208797 15.7104608,59.4171996 15.8664983,59.4155197 C16.724849,59.4062791 17.49555,59.4671155 18.1878787,59.6043063 L19.3885748,59.8472016 L19.8393425,59.943469 L20.3343154,60.0565369 L20.5509108,60.1097303 C21.0447897,60.2341668 21.4068587,60.349702 21.7442353,60.4901419 L22.1856602,60.6888375 L22.4569745,60.8283685 L22.9066962,61.088457 L25.0853077,62.4288929 C27.7790329,64.0969699 30.5579469,64.8520279 34.6306809,64.9800397 L35.3417635,64.9958955 C35.94527,65.0040788 36.5765905,65 37.2392487,64.983889 L38.0497061,64.9592686 L38.8916008,64.9238038 L39.7662859,64.8778149 L40.6751145,64.821622 C44.0349698,64.599694 47.0894163,63.7254564 49.989118,62.3652424 L50.466293,62.1328776 L50.9958796,61.8613384 L51.5521636,61.5663872 L52.558185,61.0159446 L53.3330583,60.5801605 L53.5227152,60.4705083 L54.5859729,60.6653672 L57.8311773,61.3087302 L58.6953434,61.4752118 L59.4786793,61.6191686 L60.2129877,61.7460377 C60.6870567,61.8249302 61.1310583,61.8924579 61.5502281,61.9486747 L62.1610133,62.0245237 C62.9523069,62.1143627 63.6547441,62.1590664 64.3102085,62.1590664 C68.0551936,62.1590664 71.2825367,60.2746592 74.9403592,56.0726379 C75.0581864,55.9372807 75.1586551,55.7880004 75.2394755,55.6281993 L75.3931732,55.3168425 C77.2436873,51.4744608 77.4289513,47.5601949 76.2918694,45.1040365 L76.2308533,44.9797617 L76.169374,44.7348608 C76.0387987,44.1953213 75.9210608,43.5501119 75.8160468,42.8100197 L75.7291481,42.15267 C75.7151835,42.0393228 75.7014778,41.9241021 75.6880308,41.8070394 L75.6104505,41.0828104 L75.5390626,40.3158821 L75.4711426,39.4720094 L75.407835,38.5554278 L75.3513011,37.5962098 C75.3423812,37.432331 75.333697,37.2663334 75.3252252,37.0980462 L75.1785468,33.6007445 L75.1492071,33.0577817 L75.1100622,32.4660699 L75.061526,31.8347195 C75.0526771,31.7266973 75.043454,31.6174032 75.0338655,31.5070268 L74.9425581,30.5342512 C74.9310348,30.4198175 74.9103338,30.3064742 74.8806511,30.1952956 L71.0468909,15.8356541 C71.0007843,15.6629582 70.9332977,15.4965734 70.8459674,15.3402876 C68.9585944,11.9626526 65.6520132,7.91284255 61.7348948,4.80837004 C61.6534407,4.74381441 61.5674292,4.68511428 61.477519,4.63271911 C56.8221355,1.91979479 53.2093612,0.728330761 47.8998739,0.262485983 L47.090383,0.19795193 C46.6789325,0.168306496 46.2571675,0.14251884 45.8239324,0.120253216 L44.9418264,0.0803185324 L44.027079,0.0491790544 L43.0776357,0.0262379016 L42.0914419,0.0108981932 L41.0664433,0.00256304844 C40.8922623,0.00172441124 40.7163788,0.00115276083 40.5387501,0.000835662187 Z M39.1071357,4.33356049 L41.0231942,4.33593074 L41.9897432,4.34332768 L42.9161062,4.35691545 L43.8044202,4.3772625 L44.6568222,4.40493727 C44.7960152,4.41019195 44.933801,4.41577565 45.070224,4.42170019 L45.8727647,4.46143238 L46.6447359,4.50991339 C46.770969,4.51875421 46.8960174,4.52798325 47.0199257,4.53761235 L47.7500493,4.60028244 L48.4549459,4.67312248 C52.3819192,5.11577121 55.1967177,6.07565206 58.6491748,8.01822549 L59.1192616,8.28663509 L59.3974847,8.51114683 C62.5408994,11.091634 65.2338103,14.3703195 66.8256794,17.1007509 L66.8889863,17.2120371 L70.6071858,31.139235 L70.6765006,31.8884427 L70.7251107,32.4817586 L70.7652711,33.0416438 L70.7965185,33.5578693 L70.930733,36.7861587 L70.9929704,38.0050313 L71.06382,39.1589286 C71.0764548,39.3466265 71.0895302,39.5322143 71.103087,39.7159906 L71.1452423,40.2621835 C71.3513628,42.8167081 71.6445319,44.857166 72.0783598,46.361583 C72.1086153,46.4665024 72.1468059,46.5689324 72.1925729,46.6680126 L72.266861,46.8140129 C72.4756945,47.1885725 72.6463782,48.0298264 72.6123984,49.0609731 L72.5982744,49.3452162 C72.5160681,50.586147 72.1597946,51.9452058 71.4889715,53.3595975 L71.4426871,53.4518732 L71.1373319,53.7939472 C68.4798193,56.7161213 66.4571426,57.8255055 64.3102085,57.8255055 C63.8072806,57.8255055 63.2303814,57.7859548 62.552935,57.7058612 L62.0255823,57.6381737 L61.4580329,57.5551896 L60.8477952,57.4568158 L60.1923779,57.3429594 L59.4892894,57.2135273 L54.9164682,56.3153195 L54.2661929,56.199945 L53.8514554,56.1343071 L53.4022938,56.0690506 C53.035119,56.01708 52.6616784,56.0585954 52.3167854,56.1882887 L52.1342905,56.2671258 L50.6225527,57.1198258 L49.87247,57.5345074 L49.2952153,57.8470464 L48.6588005,58.180978 L48.2838856,58.3687374 C48.2257768,58.397041 48.1700738,58.4237168 48.1171025,58.448565 C45.6838153,59.5899897 43.1511226,60.314892 40.3841024,60.4976616 L39.5428738,60.549898 L38.7383055,60.5928481 L37.9689605,60.6262976 L37.2334013,60.6500319 L36.5301909,60.6638365 L35.8578919,60.6674968 L35.2150671,60.6607983 C35.110306,60.6588068 35.0067131,60.6563747 34.9042584,60.6534975 L34.3029501,60.6308587 C34.008886,60.6168334 33.7245273,60.5987224 33.4490655,60.5764051 L32.9097651,60.5261264 C30.7101114,60.2929652 29.0908736,59.7621122 27.5841987,58.863737 L25.2565938,57.4310777 L24.6993581,57.1020702 L24.3581148,56.9165854 L24.0187374,56.7522638 L23.7227261,56.6180258 C23.1733255,56.3704217 22.6254428,56.177639 21.9676709,55.9984967 L21.504145,55.8787538 L21.1089639,55.7849098 L20.3275822,55.614463 L19.7446668,55.4946734 L19.0458578,55.3549197 C18.0333636,55.1542853 16.9641579,55.0698861 15.8189654,55.0822147 C14.8684331,55.0924478 13.9598556,55.1595297 12.8748885,55.2915003 L12.2009947,55.3785336 L11.4742868,55.4815261 L9.13039604,55.827588 L8.5431276,55.9030721 L8.20150253,55.9370102 L7.99806223,55.9494479 L7.82414724,55.9524525 L7.66561546,55.9475751 L7.56149009,55.9407106 C6.36823387,55.8486681 4.81644648,54.3354238 4.53819468,52.9119502 L4.46505948,52.5118652 C4.34135381,51.7743719 4.35002701,51.3922876 4.43690928,50.9938977 L4.55513105,50.5067929 C4.56176989,50.4772678 4.56811482,50.4480256 4.57434049,50.4181951 L4.60406812,50.2640507 C4.61309556,50.2128236 4.6212446,50.1615654 4.62882878,50.103764 L4.88105249,49.5549766 C5.02531949,49.2244602 5.16080253,48.8660636 5.29908825,48.4363843 L5.41433772,48.0696956 L5.4955593,47.8414519 L5.60371896,47.5656398 L6.12791295,46.3225256 L6.2747998,45.9612651 C6.88952291,44.4161326 7.22092189,43.1244072 7.26512826,41.6615968 L7.26743814,41.4713108 L7.24825279,41.6271883 C7.32855281,41.0702637 7.3613822,40.5137493 7.35262051,39.9375853 L7.34228341,39.4761148 L7.32583125,39.1489716 L7.30507981,38.895529 L7.27451837,38.6118672 L7.19542846,38.0150151 L6.93344768,36.2726827 C6.57326729,33.9220583 6.46546592,32.2856705 6.63976879,30.0405965 C7.1402347,23.5944433 9.75282699,17.0054394 13.9286544,13.2728356 L14.1973143,13.0384924 C17.0072151,10.5529383 20.4369402,8.5225242 24.5260044,6.92815053 L25.0876946,6.71343688 C29.1086342,5.12708627 33.7672752,4.33356049 39.1071357,4.33356049 Z" id="Path-Copy-7" fill-rule="nonzero"></path>
            <path d="M66.2478821,12.8943956 C66.1682835,12.8993289 66.0890158,12.9086293 66.010437,12.9222549 C63.2358164,13.4033733 60.5212126,13.9188233 57.8666132,14.4686299 C57.6750411,14.5083073 57.4896865,14.5736084 57.3155486,14.6627719 C54.2160672,16.2497936 52.9942468,19.4102183 53.5465934,23.6156705 L53.5608526,23.708644 C53.8173351,25.1697303 54.4397672,26.5580256 55.404517,27.8588664 C56.6245842,29.50397 58.5331533,30.2958038 60.9051203,30.2958038 C61.0210498,30.2958038 61.1367944,30.2865503 61.2512514,30.2681315 L65.5051073,29.5720601 L67.2745999,29.26851 L68.1541599,29.1098659 L68.8687411,28.9732195 L69.5192074,28.836044 L69.833481,28.7595656 L69.9562712,28.725513 L70.0568148,28.6941159 C70.0717453,28.6890987 70.0857692,28.6841879 70.0988966,28.6793814 C70.8810838,28.3929905 71.992498,27.6354133 72.6515514,27.0467226 L72.9483665,26.7717146 C73.0628557,26.6631022 73.1699487,26.5543954 73.2804131,26.431565 C73.5714284,26.1079718 73.8371099,25.7381336 74.0782263,25.3018078 C74.5650678,24.4208164 74.9186212,23.3250347 75.1245378,21.9687421 C75.3803618,20.2837288 74.9982605,18.6654684 74.2114809,17.1661173 L74.0746627,16.9134795 C73.7535885,16.3388239 73.4220377,15.8685221 73.1292533,15.5136133 L72.9672743,15.3254979 L73.04541,15.4273898 C71.62628,13.4968063 69.2750409,12.7067791 66.2478821,12.8943956 Z M69.6102746,18.1049692 L69.6911843,18.1974949 C69.8318047,18.3494322 70.1000076,18.7080544 70.3532736,19.1906988 C70.7435468,19.9344352 70.9156547,20.6633396 70.8167598,21.3147218 C70.6982866,22.0950592 70.5283572,22.6630426 70.331293,23.0660874 L70.2035717,23.3041896 L70.1535036,23.3845479 C70.1449977,23.3967584 70.1361419,23.4086954 70.1265321,23.4208352 L70.0565943,23.4999217 L69.9491699,23.6067518 L69.784867,23.7641985 C69.7265118,23.8199679 69.6352332,23.8949744 69.5281646,23.9772032 L69.2980508,24.1477307 C69.2578819,24.1765703 69.2172276,24.2053223 69.1767227,24.2335419 L68.9405611,24.3929097 C68.7910832,24.4901484 68.6643005,24.5646278 68.6008258,24.5878685 L68.5458953,24.6030774 L68.37473,24.6402423 L67.6518684,24.7770293 L65.2537534,25.1938998 L62.6183964,25.6320262 L60.7420029,25.9360121 L60.4950605,25.9257089 C59.6618704,25.869899 59.1804391,25.635783 58.9042322,25.2633535 L58.7389415,25.0314279 C58.3165424,24.4136434 58.0406476,23.801017 57.8991575,23.186041 L57.8593172,22.9879693 L57.8351627,22.7900078 C57.5979786,20.6734557 57.9869319,19.4439857 58.9357185,18.7630898 L59.0784457,18.6674264 L60.3222497,18.4151645 C61.9014504,18.0991256 63.5023654,17.7951454 65.1249921,17.5032293 L66.6293743,17.2365407 L66.5174108,17.243194 C68.1224221,17.1437191 69.0336544,17.4194799 69.4724138,17.9297466 L69.6102746,18.1049692 Z" id="Path-2-Copy-7" fill-rule="nonzero" transform="translate(64.310742, 21.581669) rotate(-8.000000) translate(-64.310742, -21.581669) "></path>
            <path d="M43.0741267,20.9307897 L38.6490377,21.6185411 L37.2820678,21.8384861 L35.4716779,22.1408748 L34.2599449,22.3570071 L33.3875059,22.5294949 L33.1155198,22.5904322 L32.903789,22.6437496 C31.189882,23.1108275 29.6205108,24.4211343 28.7589178,26.0011772 L28.4575587,26.5946154 L28.2976424,26.9228161 C28.272823,26.9750276 28.2486128,27.0266769 28.2245502,27.0787873 C27.2857521,29.111865 26.9999968,31.039819 27.7668003,33.2087493 L27.8620339,33.4752274 L28.0431529,33.9634851 L28.2147658,34.3985224 L28.3804228,34.7879923 C28.4896644,35.0341505 28.5973022,35.2550325 28.7080694,35.4608425 C29.0056466,36.0137529 29.3271196,36.4591395 29.7387664,36.9040688 L30.0004338,37.1765825 L30.5918013,37.7441971 C32.1697048,39.2333434 34.3809014,39.4135471 37.3886659,38.9549982 L38.51449,38.7777325 L39.9007965,38.5414153 L41.2470912,38.3009084 L42.080046,38.1474313 L43.7923959,37.8190705 L44.7838893,37.6186831 L45.3833768,37.492237 L45.9288087,37.3723373 C46.0149785,37.352939 46.0987228,37.3338432 46.1799551,37.3150646 C46.3933013,37.2657449 46.5979927,37.1845423 46.7871286,37.0741944 C49.0100541,35.7772686 49.8334179,35.004231 50.7251253,33.2190632 L50.9327852,32.7884355 C50.9678201,32.7134367 51.0031232,32.6367659 51.0387779,32.5583356 C51.9674048,30.5156193 51.9187168,28.7137785 51.2998667,26.5801965 C50.7999623,24.8566985 49.9770844,23.6147809 48.3519961,22.2799889 C46.9266168,21.109231 45.1197239,20.6750946 43.0741267,20.9307897 Z M45.5864719,25.6469711 C46.534923,26.4259966 46.86128,26.9185464 47.1151981,27.7939687 C47.4712644,29.0215625 47.4930944,29.8294469 47.0722685,30.7551448 L46.9241209,31.0772712 L46.7844376,31.3667908 C46.4707738,31.9919837 46.2219855,32.2861587 45.5976732,32.6998018 L45.3058356,32.8857052 L44.8785172,33.141855 L44.1753058,33.2946296 L43.2651361,33.4814098 L42.2508713,33.6804674 L41.0088992,33.9147303 L39.6754157,34.1566426 L38.0200854,34.443013 L37.1629912,34.5808012 L36.5771338,34.6688836 C36.4280335,34.6894215 36.283343,34.7073883 36.1433064,34.7229057 L35.7374022,34.7622314 L35.3608851,34.7875916 C35.2404399,34.7937986 35.1251365,34.7977997 35.015219,34.7997169 L34.7018679,34.799338 L34.4222957,34.7871857 C33.9853043,34.7575267 33.6951579,34.6818565 33.5823547,34.5753985 L33.1080297,34.1216496 L32.9370302,33.9450483 C32.7702756,33.7648111 32.6645126,33.6182812 32.5448241,33.3958952 L32.4450675,33.1988014 C32.4106657,33.1269572 32.3750064,33.0486701 32.3377662,32.9630504 L32.220979,32.6833034 L32.0927648,32.3542216 L31.8747714,31.7564175 C31.5498078,30.8372467 31.6734378,30.0031308 32.1803223,28.9054127 L32.3593653,28.533842 L32.5484556,28.1559096 C32.8433809,27.5619068 33.4965406,26.998256 34.049427,26.8475821 L34.2209781,26.8054611 L34.557825,26.7341955 L35.2920848,26.5954724 L36.8998893,26.3175629 L39.3827539,25.9138004 L43.6735474,25.2460928 C44.4703027,25.1472576 45.0511017,25.2644759 45.4818678,25.5673912 L45.5864719,25.6469711 Z" id="Path-3-Copy-7" fill-rule="nonzero" transform="translate(39.539282, 30.018668) rotate(-8.000000) translate(-39.539282, -30.018668) "></path>
            <path d="M58.950778,34.1172175 C58.2843999,34.2691005 57.5918623,34.457039 56.8398583,34.6838756 L56.0944551,34.9149404 L54.9912311,35.2714253 C52.2085574,36.1726933 51.2345777,38.4054883 50.8739819,41.8614095 L50.8631329,42.0243865 C50.7844844,44.7381748 51.203452,46.0456603 53.1401812,47.830833 C53.2627175,47.9437804 53.397809,48.0422948 53.542805,48.1244434 C54.3042344,48.555837 55.0308428,48.6257221 56.2208984,48.4886452 L56.6609728,48.4319232 C56.7377963,48.4211212 56.8164261,48.4096659 56.8969639,48.3975889 L57.4038965,48.3179173 L59.3841368,47.9794388 L59.4886044,47.971515 C61.235225,47.8760253 64.5166071,46.6654721 65.6608705,45.3465115 C66.7272657,44.1173075 67.1279051,42.723762 67.3509009,40.5865882 C67.6174425,38.0320755 66.9736153,35.9047212 64.7250685,34.3666762 C64.6355234,34.3054258 64.541528,34.2509497 64.443867,34.2037026 C63.0206943,33.5151912 61.2517829,33.5927652 58.950778,34.1172175 Z M62.43606,38.0924407 L62.4896609,38.135841 C62.9984892,38.5814994 63.1207813,39.1425082 63.0172846,40.1344123 C62.8808523,41.4419679 62.6830454,42.1300003 62.3696635,42.4912269 C62.3624287,42.4995662 62.3458646,42.5123488 62.3208323,42.5288889 L62.2211921,42.5890968 L62.0759099,42.667737 L61.8901528,42.7606964 L61.6690879,42.8638614 L61.4178823,42.9731188 L61.1417031,43.0843551 L60.8388925,43.196012 L60.5253804,43.301747 L60.2212209,43.3958711 L59.9369504,43.4763376 L59.6831054,43.5410999 C59.6439187,43.5504712 59.6064387,43.5591029 59.5708851,43.5669524 L59.3824341,43.6043211 C59.3284928,43.6134209 59.2840127,43.6190507 59.2507497,43.6208692 C59.071402,43.6306743 58.8797802,43.6516957 58.6491313,43.6851146 L58.0427171,43.7835649 L57.0439565,43.9601592 L56.7029082,44.0175325 L56.2840971,44.0820162 L55.922494,44.1290984 L55.6145172,44.158455 L55.5752338,44.1138508 C55.3049201,43.7978483 55.2215269,43.5314608 55.2079259,42.9871767 L55.2063991,42.6903603 L55.2154029,42.2413121 L55.2599697,41.8676993 C55.278647,41.72602 55.2985478,41.5912214 55.3196821,41.4630983 L55.3867954,41.0985495 C55.5874913,40.1212377 55.8780317,39.6113786 56.2645736,39.4428037 L56.6599029,39.3105723 L57.6467759,38.9941199 L58.09816,38.8553707 C58.7613103,38.6553361 59.3608021,38.4926481 59.91904,38.3654127 C60.3839329,38.2594529 60.8058219,38.1842033 61.1703322,38.1355461 L61.515184,38.0956005 C61.8939548,38.0589829 62.188105,38.0566921 62.374808,38.082189 L62.43606,38.0924407 Z" id="Path-6-Copy-7" fill-rule="nonzero" transform="translate(59.130839, 41.128779) rotate(-8.000000) translate(-59.130839, -41.128779) "></path>
            <path d="M42.3927283,23.4074554 C43.2474213,23.1520267 43.3915688,23.2982758 43.8864178,23.4493804 C44.3812669,23.600485 46.3312152,24.550117 47.2287696,26.9605028 C47.8271393,28.5674267 47.7413966,30.1277753 46.9715416,31.6415487 C46.4226231,32.8259217 45.3320662,33.4217245 43.6998712,33.428957 C41.2515786,33.4396597 38.8373089,32.2589938 38.4712998,29.0717411 C38.1052906,25.8844885 41.568376,23.6538167 42.3927283,23.4074554 Z" id="Path-4-Copy-7" stroke="#1F4232" stroke-linecap="square" stroke-linejoin="round" transform="translate(43.032804, 28.348644) rotate(-8.000000) translate(-43.032804, -28.348644) "></path>
            <path d="M65.8127325,15.9263434 C68.4118923,15.1908709 70.1804924,15.1908709 71.118533,15.9263434 C72.3908156,16.923879 72.9655559,17.5193637 72.8167438,18.9700184 C72.8009796,19.1236923 72.1480802,21.3315807 71.1296889,23.510513 C70.4507614,24.9631345 69.710126,25.4850779 68.9077828,25.0763434 C65.3705825,24.7858672 63.4965472,23.3584399 63.2856769,20.7940615 C63.0748065,18.2296832 63.9171584,16.6071105 65.8127325,15.9263434 Z" id="Path-5-Copy-7" stroke="#1F4232" stroke-linecap="square" stroke-linejoin="round" transform="translate(68.046870, 20.292857) rotate(-8.000000) translate(-68.046870, -20.292857) "></path>
        </g>
    </g>
</svg>