<?xml version="1.0" encoding="UTF-8"?>
<svg width="229px" height="81px" viewBox="0 0 229 81" version="1.1" xmlns="http://www.w3.org/2000/svg" xmlns:xlink="http://www.w3.org/1999/xlink">
    <title>Artboard</title>
    <g id="Artboard" stroke="none" stroke-width="1" fill="none" fill-rule="evenodd">
        <g id="BLOG-Copy" transform="translate(102.692000, 48.628000)" fill="#000000" fill-rule="nonzero">
            <path d="M0,24.372 L17.28,24.372 C25.344,24.336 25.74,24.3 27.072,23.832 C29.232,23.112 30.132,21.348 30.132,17.928 C30.132,14.076 29.16,12.672 25.992,12.132 C28.404,11.448 29.232,10.044 29.232,6.624 C29.232,2.268 27.936,0.756 24.012,0.468 C22.932,0.396 22.932,0.396 17.244,0.36 L0,0.36 L0,24.372 Z M6.948,9.828 L6.948,6.012 L17.244,6.012 C20.556,6.048 20.664,6.048 21.06,6.12 C21.78,6.3 22.14,6.84 22.14,7.848 C22.14,8.712 21.852,9.324 21.348,9.54 C20.88,9.756 19.836,9.828 17.244,9.828 L6.948,9.828 Z M6.948,18.612 L6.948,14.616 L17.28,14.616 C21.492,14.616 21.492,14.616 21.888,14.724 C22.716,14.904 23.04,15.408 23.04,16.524 C23.04,17.532 22.788,18.072 22.176,18.324 C21.636,18.576 21.636,18.576 17.28,18.612 L6.948,18.612 Z" id="Shape"></path>
            <polygon id="Path" points="32.688 0.36 32.688 24.372 57.42 24.372 57.42 18.252 40.356 18.252 40.356 0.36"></polygon>
            <path d="M75.528,0 C65.556,0 63.252,0.288 61.416,1.656 C59.616,3.06 59.04,5.544 59.04,12.204 C59.04,19.224 59.58,21.636 61.416,23.076 C63.252,24.444 65.592,24.732 75.6,24.732 C85.464,24.732 87.804,24.444 89.64,23.076 C91.476,21.636 92.016,19.26 92.016,12.348 C92.016,5.472 91.476,3.096 89.64,1.656 C87.804,0.288 85.536,0 75.528,0 Z M75.528,6.228 C82.152,6.228 83.016,6.336 83.844,7.308 C84.492,8.1 84.708,9.54 84.708,13.032 C84.708,15.912 84.456,16.992 83.628,17.64 C82.692,18.36 81.396,18.504 75.6,18.504 C69.66,18.504 68.364,18.36 67.428,17.64 C66.564,16.956 66.348,15.984 66.348,12.996 C66.348,9.936 66.492,8.568 66.924,7.74 C67.644,6.336 68.364,6.228 75.528,6.228 Z" id="Shape"></path>
            <path d="M109.44,10.764 L109.44,15.552 L119.052,15.552 C119.052,17.424 118.944,17.856 118.548,18.252 C117.864,18.864 116.532,18.972 110.304,18.972 L106.02,18.9 C103.932,18.828 103.284,18.72 102.708,18.216 C101.88,17.604 101.664,16.272 101.664,12.276 C101.664,6.048 101.7,6.012 110.34,6.012 C115.812,6.012 117.54,6.156 118.26,6.66 C118.728,6.984 118.8,7.308 118.836,8.676 L126.144,8.676 C126.108,5.148 125.82,3.672 124.812,2.484 C123.228,0.612 119.88,0 110.988,0 C102.6,0 98.712,0.468 96.984,1.692 C94.968,3.096 94.356,5.508 94.356,11.988 C94.356,19.872 94.752,21.636 96.876,23.04 C98.892,24.408 101.484,24.732 109.692,24.732 C116.172,24.732 118.728,24.588 121.212,24.084 C124.092,23.508 125.64,21.852 125.928,19.044 C126.036,17.892 126.18,13.716 126.18,11.412 L126.18,10.764 L109.44,10.764 Z" id="Path"></path>
        </g>
        <g id="Group-Copy-2" transform="translate(49.507308, 39.881077) rotate(12.000000) translate(-49.507308, -39.881077) translate(8.007308, 4.881077)" fill="#000000">
            <path d="M43.8339859,-2.49903583 L42.1990852,-2.5 C35.7378851,-2.5 29.982326,-1.55154917 24.9418447,0.360165758 L24.3634246,0.585023933 C19.1209916,2.56760533 14.6201928,5.16254475 10.9102416,8.36180419 L10.4308239,8.78252539 C4.36723214,13.9901229 0.778144286,22.976707 0.101281488,31.7769696 C-0.114780494,34.5861093 -0.00397618044,36.7210387 0.384352133,39.4583367 L0.771043431,42.0669768 L0.852440314,42.715546 L0.875039039,42.9614793 L0.892298115,43.2584778 L0.901932994,43.6547267 C0.908123702,44.0656567 0.885828051,44.4471638 0.832311403,44.8218248 C0.815585569,44.9389196 0.807191021,45.0570537 0.807191021,45.175337 C0.807191021,46.2952233 0.558738484,47.3252177 0.00911152438,48.7174934 L-0.162680735,49.1408831 L-0.645759655,50.2918377 L-0.842085567,50.7824574 C-0.930953134,51.012865 -1.00680258,51.2240603 -1.07379627,51.4301789 L-1.20493857,51.8517971 L-1.33163193,52.2290834 C-1.37267809,52.3440088 -1.41281589,52.4491767 -1.45287514,52.5478249 L-1.53454043,52.7393741 L-1.81655251,53.3620348 C-1.82990964,53.3929259 -1.84151209,53.4203974 -1.85067506,53.4430478 C-1.97302255,53.7454845 -2.0619789,54.0443756 -2.12353166,54.3736858 L-2.17072092,54.6594217 L-2.26189568,55.0339622 C-2.57634478,56.3212163 -2.60250472,57.5471461 -2.22440243,59.4996397 C-1.49631753,63.2594187 2.03902335,66.7394008 5.75197585,67.0284972 L6.05815254,67.0501163 L6.34093836,67.0633591 L6.61906916,67.0665134 L6.81115585,67.0621658 L7.01505207,67.0520659 L7.35518287,67.0250205 L7.75311155,66.9821785 L8.59565327,66.8710201 L11.3238344,66.463 L12.0699643,66.3559697 L12.755491,66.265964 L13.3906681,66.1924533 C13.7996148,66.1488269 14.1818309,66.1158441 14.5509878,66.0927988 L15.0966377,66.0655957 C15.2763954,66.0589536 15.4545973,66.0547076 15.6329523,66.0527694 C16.6140697,66.0421077 17.4950013,66.1122998 18.2863512,66.2705886 L19.6587785,66.5508377 L20.1740178,66.6619096 L20.7397849,66.7923657 L20.9873591,66.8537395 C21.5518757,66.9973125 21.9657301,67.1306154 22.3513605,67.2926529 L22.8559207,67.521905 L23.1660401,67.6828939 L23.6800839,67.9829802 L26.1702943,69.5295559 C29.2492931,71.454159 32.425665,72.3253341 37.0809072,72.4730322 L37.8936934,72.4913264 C38.5835172,72.5007682 39.3051332,72.4960621 40.0625689,72.4774735 L40.9889431,72.4490668 L41.9512509,72.408148 L42.951039,72.3550867 L43.989854,72.2902522 C47.8302572,72.0341949 51.3215699,71.0255121 54.6360054,69.4561168 L55.181429,69.1880177 L55.7867604,68.8747196 L56.4226077,68.5344092 L57.5725167,67.8993165 L58.4582172,67.3965151 L58.675,67.27 L59.8903317,67.4948253 L63.5996857,68.2371283 L64.5874503,68.4292123 L65.482824,68.5953076 L66.3221578,68.7416873 C66.8640311,68.8327123 67.3715366,68.9106248 67.8506588,68.9754871 L68.5488024,69.0630005 C69.4532718,69.1666555 70.2561759,69.2182339 71.005389,69.2182339 C75.2860057,69.2182339 78.9749438,67.0440321 83.1559313,62.1958005 C83.2906109,62.0396274 83.4054493,61.8673899 83.4978292,61.6830137 L83.6735096,61.3237748 C85.7886959,56.8904901 86.0004576,52.3742667 84.700743,49.5403865 L84.631,49.397 L84.5607275,49.1144369 C84.4114766,48.4919241 84.2768991,47.7474907 84.1568652,46.893583 L84.0575378,46.1351424 C84.0415758,46.0043641 84.0259099,45.8714241 84.0105397,45.7363588 L83.9218633,44.9007538 L83.840265,44.0158831 L83.7626307,43.0422349 L83.6902684,41.9846963 L83.6256487,40.8779644 C83.6154531,40.6888834 83.6055268,40.4973578 83.5958432,40.3031904 L83.428186,36.2680541 L83.39465,35.6415915 L83.3499063,34.958883 L83.2944282,34.23044 C83.2843136,34.1058056 83.2737714,33.9797036 83.2628115,33.8523529 L83.1584447,32.7299784 C83.1452733,32.5979465 83.1216115,32.4671727 83.0876834,32.3388964 L78.7055945,15.7709493 C78.6528934,15.5716951 78.5757544,15.3797228 78.4759336,15.1994025 C76.3186165,11.3023359 72.5391071,6.62972356 68.0617376,3.04782798 C67.9686334,2.97334462 67.8703201,2.90561725 67.7675503,2.84516446 C62.4463243,-0.284968474 58.3168282,-1.65966248 52.2479443,-2.19714746 L51.3226749,-2.27160592 C50.8523761,-2.30581039 50.3702877,-2.33556382 49.8750886,-2.36125357 L48.8668182,-2.40732964 L47.8212377,-2.44325792 L46.735999,-2.46972709 L45.6087536,-2.48742582 L44.4371531,-2.49704279 C44.2380597,-2.4980104 44.0370203,-2.49866996 43.8339859,-2.49903583 Z M42.197613,2.49999957 L44.3877183,2.50273432 L45.4925093,2.5112688 L46.5513666,2.52694618 L47.5667329,2.55042231 L48.5410508,2.58235306 C48.7001521,2.58841584 48.8576449,2.59485823 49.0135799,2.60169388 L49.9309051,2.6475363 L50.8132885,2.703473 C50.9575763,2.71367341 51.1005099,2.72432174 51.2421403,2.73543166 L52.0766909,2.80773951 L52.8824062,2.89178128 C57.3710402,3.40250301 60.588429,4.50999968 64.5346784,6.75131288 L65.072,7.061 L65.3900163,7.32003841 C68.9830222,10.2973672 72.0610902,14.0802673 73.8806385,17.2305996 L73.953,17.359 L78.203,33.428 L78.2822285,34.2924251 L78.3377912,34.9769844 L78.3836956,35.6229718 L78.4194123,36.2185854 L78.5728229,39.9433391 L78.6439619,41.3496567 L78.7249448,42.6810069 C78.7393868,42.89757 78.7543323,43.1116985 78.7698281,43.3237369 L78.8180127,43.9539264 C79.0536139,46.9013001 79.3887139,49.2555509 79.8845906,50.9913255 C79.9191734,51.11238 79.9628263,51.2305623 80.0151392,51.3448795 L80.1000525,51.5133326 C80.3387546,51.945494 80.5338506,52.9161207 80.4950108,54.1058429 L80.4788667,54.4337985 C80.3849027,55.8655665 79.9776727,57.433629 79.2109043,59.0655336 L79.158,59.172 L78.8089709,59.5666801 C75.771364,62.9382424 73.4593913,64.2182339 71.005389,64.2182339 C70.4305292,64.2182339 69.7711183,64.1726009 68.9967791,64.0801901 L68.3940011,64.0020932 L67.7452772,63.9063473 L67.0477595,63.7928451 L66.2986002,63.6614792 L65.4949515,63.5121422 L60.2680965,62.4758031 L59.5248146,62.3426857 L59.0507587,62.2669536 L58.5373552,62.1916616 C58.1176647,62.1316987 57.6908123,62.1795985 57.2965906,62.3292367 L57.0879941,62.4201979 L55.360038,63.4040309 L54.5026736,63.8824844 L53.8428564,64.2430874 L53.1154175,64.6283729 L52.6868798,64.845007 C52.6204599,64.8776633 52.5567899,64.9084414 52.4962423,64.9371109 C49.714931,66.2540703 46.8199965,67.0904522 43.6572196,67.301329 L42.695673,67.3615986 L41.7760304,67.4111539 L40.8966487,67.4497475 L40.0558852,67.4771317 L39.2520972,67.4930592 L38.4836417,67.4972824 L37.7488761,67.4895538 C37.6291314,67.487256 37.5107219,67.4844499 37.3936135,67.4811303 L36.7063023,67.4550099 C36.3701793,67.4388277 36.0451498,67.4179315 35.7302898,67.3921822 L35.1138552,67.3341713 C32.599593,67.0651533 30.7487616,66.4526628 29.0265925,65.4161304 L26.3660788,63.7631488 L25.7291437,63.3835447 L25.3390936,63.169535 L24.9511763,62.9799431 L24.6128275,62.8250612 C23.9848483,62.5393792 23.3586038,62.3169493 22.6067532,62.1102575 L22.0769309,61.9720998 L21.6252286,61.863824 L20.7320887,61.667165 L20.065801,61.5289535 L19.267044,61.3677076 C18.1097364,61.1362186 16.8876061,61.0388399 15.5786209,61.0530646 C14.4921374,61.0648713 13.4536095,61.1422695 12.2134635,61.2945353 L11.4431851,61.3949531 L10.6125389,61.5137843 L7.93340995,61.9130655 L7.26214666,62.000158 L6.8716602,62.0393153 L6.63912258,62.0536657 L6.44033316,62.0571324 L6.25912716,62.0515049 L6.14010912,62.0435847 C4.77618583,61.9373875 3.00245197,60.1914279 2.68440284,58.5490447 L2.60080738,58.0874324 C2.45940853,57.2365233 2.46932224,56.7956799 2.56863096,56.3360234 L2.70376155,55.7740089 C2.71134992,55.7399432 2.71860235,55.706204 2.72571845,55.671786 L2.75969791,55.4939364 C2.77001651,55.4348314 2.77933108,55.3756904 2.788,55.309 L3.07629835,54.675817 C3.24119932,54.2944719 3.39606,53.8809591 3.55412423,53.3852013 L3.6858574,52.9621212 L3.77869582,52.6987769 L3.90232515,52.3805489 L4.5014927,50.9462617 L4.66938822,50.5294445 C5.37203293,48.746693 5.7508307,47.2563187 5.80135974,45.5685493 L5.804,45.349 L5.78207064,45.5288492 C5.87385567,44.8862776 5.91138053,44.2441794 5.9013657,43.5794096 L5.88955011,43.0469717 L5.87074486,42.6695186 L5.84702541,42.3771002 L5.81209288,42.0498153 L5.72169103,41.3611759 L5.4222401,39.3508979 C5.01054443,36.6387814 4.88732463,34.7507408 5.0865574,32.1604068 C5.65860312,24.7229283 8.64486492,17.1206306 13.4179457,12.8140062 L13.725031,12.5436244 C16.9368216,9.67582799 20.8570878,7.33316545 25.5309958,5.49360012 L26.1730225,5.2458666 C30.7690623,3.41555816 36.0940117,2.49999957 42.197613,2.49999957 Z" id="Path-Copy-7" fill-rule="nonzero"></path>
            <path d="M73.5852221,12.8332105 C73.4938794,12.8388717 73.4029165,12.8495443 73.3127441,12.8651802 C70.1287532,13.4172833 67.0136341,14.0087833 63.9673725,14.6397089 C63.7475357,14.6852403 63.5348336,14.760176 63.3350032,14.8624948 C59.7782214,16.6836672 58.3761324,20.3103841 59.0099727,25.1363128 L59.0263358,25.2430038 C59.3206599,26.9196602 60.0349263,28.5127859 61.1420162,30.0055541 C62.5420933,31.8933779 64.7322546,32.8020396 67.454184,32.8020396 C67.5872178,32.8020396 67.7200395,32.7914209 67.8513835,32.7702845 L72.7328576,31.971514 L74.7634229,31.6231778 L75.772754,31.4411273 L76.5927652,31.2843199 L77.3392019,31.1269054 L77.6998437,31.0391433 L77.8407506,31.0000665 L77.9561285,30.964037 C77.9732618,30.9582796 77.9893548,30.9526443 78.0044191,30.9471286 C78.9020109,30.6184834 80.1774043,29.7491325 80.933695,29.0735858 L81.2743025,28.7580028 C81.4056835,28.6333656 81.5285772,28.5086202 81.6553396,28.3676672 C81.9892916,27.9963307 82.2941721,27.5719262 82.570863,27.0712245 C83.1295335,26.0602508 83.5352506,24.8027964 83.7715483,23.246395 C84.0651168,21.3127732 83.6266399,19.4557531 82.7237781,17.7351862 L82.5667735,17.445274 C82.1983277,16.7858331 81.8178596,16.2461426 81.4818775,15.8388702 L81.296,15.623 L81.3856639,15.7399252 C79.7571541,13.5245015 77.0590109,12.6179129 73.5852221,12.8332105 Z M77.4437053,18.8125573 L77.5365524,18.9187343 C77.6979201,19.0930886 78.0056939,19.5046223 78.2963271,20.0584765 C78.7441816,20.9119445 78.9416824,21.7483922 78.8281965,22.4958799 C78.6922436,23.391349 78.4972427,24.0431333 78.2711034,24.5056438 L78.124538,24.7788757 L78.0670828,24.8710902 C78.057322,24.8851023 78.0471595,24.8988004 78.0361319,24.9127314 L77.9558754,25.0034864 L77.8326015,25.1260783 L77.6440572,25.3067548 C77.5770923,25.3707526 77.4723463,25.4568256 77.3494807,25.5511865 L77.0854157,25.7468737 C77.0393202,25.7799683 76.9926678,25.8129625 76.9461867,25.8453456 L76.6751816,26.0282267 C76.5036496,26.1398121 76.3581612,26.2252802 76.2853214,26.2519499 L76.2222864,26.2694027 L76.0258672,26.312051 L75.1963539,26.4690197 L72.4444186,26.9473957 L69.4202385,27.4501636 L67.267,27.799 L66.9836235,27.7871766 C66.0275038,27.7231324 65.4750416,27.4544747 65.1580828,27.0270966 L64.968405,26.7609525 C64.4836847,26.0520195 64.1670842,25.3490056 64.0047184,24.6432954 L63.959,24.416 L63.9312817,24.1888311 C63.6591033,21.7600008 64.1054431,20.3491336 65.1942146,19.5677776 L65.358,19.458 L66.7853161,19.168519 C68.5975136,18.8058515 70.4346292,18.4570218 72.2966598,18.1220361 L74.023,17.816 L73.8945173,17.823635 C75.7363335,17.7094833 76.78201,18.0259302 77.2855044,18.6114821 L77.4437053,18.8125573 Z" id="Path-2-Copy-7" fill-rule="nonzero" transform="translate(71.362275, 22.802213) rotate(-8.000000) translate(-71.362275, -22.802213) "></path>
            <path d="M46.992388,22.0553021 L41.914417,22.8445251 L40.3457631,23.096921 L38.2682664,23.4439244 L36.8777532,23.691945 L35.8765937,23.8898819 L35.5644784,23.9598099 L35.3215087,24.0209938 C33.3547302,24.5569848 31.5538124,26.0606155 30.5650992,27.8737796 L30.2192772,28.5547743 L30.0357667,28.931398 C30.0072854,28.9913128 29.9795032,29.0505825 29.9518903,29.1103813 C28.8745811,31.4434213 28.5466652,33.6558276 29.4266036,36.1447639 L29.5358881,36.4505585 L29.7437295,37.0108543 L29.9406624,37.5100773 L30.1307606,37.95701 C30.2561198,38.2394866 30.3796385,38.4929578 30.5067485,38.7291332 C30.8482305,39.3636205 31.217134,39.8747199 31.6895155,40.3852945 L31.9897897,40.6980152 L32.6684081,41.3493762 C34.479117,43.0582326 37.0165557,43.2650237 40.4680887,42.7388201 L41.760018,42.5354004 L43.3508615,42.2642167 L44.8957899,41.9882252 L45.8516396,41.812104 L47.8166313,41.4352965 L48.9544107,41.2053437 L49.6423471,41.0602416 L50.2682526,40.9226518 C50.367136,40.9003915 50.463236,40.8784783 50.5564533,40.856929 C50.8012768,40.8003327 51.0361687,40.7071494 51.2532098,40.5805207 C53.804108,39.0922451 54.7489517,38.2051528 55.7722224,36.1565996 L56.0105207,35.6624367 C56.0507247,35.5763725 56.0912364,35.4883895 56.1321516,35.3983876 C57.1977891,33.0542869 57.1419176,30.9866008 56.4317617,28.5382279 C55.858101,26.5604433 54.9138149,25.135292 53.0489595,23.6035635 C51.4132783,22.2600708 49.3397946,21.7618815 46.992388,22.0553021 Z M49.875407,27.4673136 C50.9637937,28.3612772 51.3383016,28.9264983 51.6296831,29.9310813 C52.0382837,31.3397955 52.0633345,32.2668759 51.5804195,33.3291523 L51.4104141,33.6988055 L51.2501218,34.0310411 C50.8901798,34.7484756 50.6046849,35.0860534 49.888261,35.5607259 L49.5533654,35.7740576 L49.063,36.068 L48.2560362,36.2433151 L47.2115791,36.457653 L46.0476686,36.6860798 L44.6224548,36.9549061 L43.0922278,37.2325104 L41.1926685,37.5611321 L40.2091178,37.7192498 L39.5368224,37.8203279 C39.3657236,37.843896 39.1996854,37.8645136 39.0389877,37.8823205 L38.5731959,37.9274484 L38.1411271,37.9565502 C38.0029113,37.963673 37.870596,37.9682645 37.7444612,37.9704645 L37.3848779,37.9700297 L37.0640573,37.9560845 C36.5625918,37.9220495 36.2296369,37.8352148 36.1001907,37.71305 L35.5558833,37.1923545 L35.3596544,36.9896972 C35.1682965,36.7828677 35.0469292,36.6147186 34.9095817,36.3595215 L34.795107,36.1333483 C34.7556295,36.0509041 34.714709,35.9610665 34.6719743,35.8628144 L34.5379563,35.5417932 L34.3908252,35.1641584 L34.1406688,34.4781536 C33.7677597,33.4233675 33.9096302,32.4661853 34.491301,31.2065089 L34.6967601,30.7801163 L34.9137491,30.3464233 C35.2521879,29.6647807 36.0017154,29.0179683 36.6361753,28.8450639 L36.8330372,28.7967283 L37.2195828,28.7149482 L38.062176,28.5557577 L39.9071976,28.2368451 L42.7563864,27.7735111 L47.6802478,27.0072893 C48.5945572,26.8938718 49.2610478,27.0283846 49.7553697,27.3759923 L49.875407,27.4673136 Z" id="Path-3-Copy-7" fill-rule="nonzero" transform="translate(42.936009, 32.484015) rotate(-8.000000) translate(-42.936009, -32.484015) "></path>
            <path d="M65.211496,37.1872685 C64.4467999,37.3615604 63.6520846,37.5772275 62.7891292,37.8375319 L61.9337485,38.1026881 L60.6677537,38.5117691 C57.4745216,39.5460112 56.35684,42.108235 55.9430415,46.0740461 L55.9305919,46.2610689 C55.8403394,49.3752522 56.321122,50.8756454 58.5435981,52.9242043 C58.6842136,53.053816 58.8392365,53.1668653 59.0056254,53.2611342 C59.8793969,53.756176 60.7132098,53.8363721 62.0788473,53.6790708 L62.5838508,53.61398 C62.6720088,53.6015842 62.7622398,53.5884388 62.8546602,53.5745799 L63.4363861,53.4831534 L65.708793,53.0947355 L65.8286739,53.0856426 C67.8329927,52.9760643 71.5985131,51.5869048 72.9116022,50.0733436 C74.1353344,48.6627816 74.5950845,47.063631 74.8509814,44.6111364 C75.1568488,41.6797284 74.4180307,39.2385021 71.8377311,37.4735326 C71.7349743,37.4032452 71.6271108,37.3407316 71.5150408,37.2865137 C69.8818918,36.4964186 67.8519935,36.5854379 65.211496,37.1872685 Z M69.211,41.749 L69.2725093,41.7988036 C69.8564105,42.3102149 69.9967457,42.9539954 69.877979,44.0922461 C69.7214174,45.5927197 69.4944259,46.3822651 69.1348073,46.7967875 C69.1265051,46.8063572 69.1074971,46.8210256 69.0787715,46.8400061 L68.9644302,46.9090971 L68.797713,46.99934 L68.5845491,47.1060147 L68.3308681,47.2244008 L68.0425994,47.3497781 L67.7256724,47.4774263 L67.3781848,47.6055572 L67.0184168,47.7268925 L66.6693813,47.8349037 L66.3431693,47.9272423 L66.0518717,48.0015597 C66.0069034,48.0123137 65.9638936,48.0222189 65.9230943,48.0312265 L65.7068391,48.0741087 C65.6449393,48.0845511 65.5938965,48.0910114 65.5557258,48.0930983 C65.3499171,48.1043501 65.1300231,48.1284729 64.8653441,48.1668225 L64.1694589,48.2797983 L63.0233402,48.4824474 L62.6319733,48.5482856 L62.1513704,48.6222833 L61.7364161,48.6763121 L61.383,48.71 L61.3379207,48.6588149 C61.0277247,48.296189 60.9320276,47.9904984 60.9164199,47.3659101 L60.9146678,47.0253012 L60.925,46.51 L60.9761423,46.081264 C60.9975753,45.9186811 61.0204122,45.7639943 61.0446647,45.6169677 L61.1216799,45.198633 C61.3519867,44.0771277 61.6853937,43.4920434 62.1289664,43.2985969 L62.582623,43.1468559 L63.7151002,42.7837138 L64.2330819,42.6244934 C64.9940741,42.3949455 65.6820155,42.2082543 66.3226164,42.0622465 C66.8561,41.9406533 67.3402349,41.8543013 67.7585255,41.7984652 L68.154257,41.752626 C68.5889121,41.7106057 68.9264615,41.707977 69.1407108,41.7372358 L69.211,41.749 Z" id="Path-6-Copy-7" fill-rule="nonzero" transform="translate(65.418123, 45.233322) rotate(-8.000000) translate(-65.418123, -45.233322) "></path>
            <path d="M46.2104554,24.8973775 C47.1912506,24.6042626 47.3566658,24.7720894 47.9245254,24.9454882 C48.4923849,25.1188869 50.7300305,26.2086285 51.7600111,28.974645 C52.4466648,30.818656 52.3482715,32.60922 51.4648314,34.346337 C50.8349248,35.7054536 49.5834662,36.3891617 47.7104554,36.3974613 C44.9009394,36.4097431 42.1304659,35.0548805 41.7104554,31.3973775 C41.290445,27.7398745 45.2644773,25.1800872 46.2104554,24.8973775 Z" id="Path-4-Copy-7" stroke="#000000" stroke-linecap="square" stroke-linejoin="round" transform="translate(46.944968, 30.567594) rotate(-8.000000) translate(-46.944968, -30.567594) "></path>
            <path d="M73.0858701,16.3124948 C76.0685125,15.46851 78.0980536,15.46851 79.1744936,16.3124948 C80.63449,17.4572078 81.2940281,18.140551 81.1232601,19.8052367 C81.10517,19.9815838 80.3559412,22.5152262 79.1872955,25.0156403 C78.4081983,26.682583 77.5582889,27.2815345 76.6375671,26.8124948 C72.5784848,26.4791615 70.4279525,24.8411302 70.1859702,21.8984009 C69.9439878,18.9556717 70.9106211,17.093703 73.0858701,16.3124948 Z" id="Path-5-Copy-7" stroke="#000000" stroke-linecap="square" stroke-linejoin="round" transform="translate(75.649634, 21.323248) rotate(-8.000000) translate(-75.649634, -21.323248) "></path>
        </g>
    </g>
</svg>