<?xml version="1.0" encoding="UTF-8"?>
<svg width="428px" height="150px" viewBox="0 0 428 150" version="1.1" xmlns="http://www.w3.org/2000/svg" xmlns:xlink="http://www.w3.org/1999/xlink">
    <title>Artboard Copy 43 - outlined</title>
    <g id="Artboard-Copy-43---outlined" stroke="none" stroke-width="1" fill="none" fill-rule="evenodd">
        <g id="Kin-Copy-5" transform="translate(0.988365, 0.261417)" fill="#1F4232" fill-rule="nonzero">
            <path d="M0,83.52 L23.88,83.52 C20.88,81.48 20.4,77.52 22.08,71.28 L27,54 L43.56,41.76 L57.36,75.48 C58.56,78.6 57.6,81.24 54.24,83.52 L78.24,83.52 C74.04,80.4 72.84,78.12 70.68,72.84 L54.6,33.36 L82.44,12.6 C87.36,8.88 92.28,6.12 98.04,3.84 L73.8,3.84 C76.68,6.96 73.68,11.28 68.16,15.48 L30,43.68 L37.92,16.08 C39.72,9.84 42.6,5.88 46.68,3.84 L22.8,3.84 C25.8,5.88 26.4,9.84 24.6,16.08 L8.76,71.28 C6.96,77.52 4.08,81.48 0,83.52 Z" id="Path"></path>
            <path d="M78.12,83.52 L100.44,83.52 C97.68,81.84 97.08,77.76 99,71.28 L111.84,26.4 L94.56,26.4 C97.2,28.08 97.8,32.16 95.88,38.64 L86.52,71.28 C84.72,77.76 81.84,81.84 78.12,83.52 Z M103.32,7.56 C103.32,11.88 106.68,15.24 110.88,15.24 C115.08,15.24 118.44,11.88 118.44,7.56 C118.44,3.48 115.08,-9.09494702e-13 110.88,-9.09494702e-13 C106.68,-9.09494702e-13 103.32,3.48 103.32,7.56 Z" id="Shape"></path>
            <path d="M105.6,83.52 L127.92,83.52 C125.16,81.84 124.56,77.76 126.48,71.28 L133.2,47.76 C135.84,38.52 141,34.8 148.32,34.8 C156,34.8 159.12,39 156.36,48.84 L149.88,71.28 C148.08,77.76 145.08,81.84 141.48,83.52 L163.68,83.52 C160.92,81.84 160.44,77.76 162.24,71.28 L168.84,48.6 C173.4,33 167.04,25.2 155.52,25.2 C146.16,25.2 139.44,30.48 135,41.64 L139.32,26.4 L122.04,26.4 C124.68,28.08 125.28,32.16 123.36,38.64 L114,71.28 C112.2,77.76 109.32,81.84 105.6,83.52 Z" id="Path"></path>
        </g>
        <g id="pio-copy-6" transform="translate(263.445577, 0.000945)" fill="#1F4232" fill-rule="nonzero">
            <path d="M0,107.52 L25.32,107.52 C20.04,105.48 18.96,101.52 20.76,95.28 L25.2,80.04 C28.56,82.8 33.84,84.72 39.96,84.72 C54.36,84.72 67.44,74.4 72.36,57.48 C77.88,39 70.2,25.2 55.92,25.2 C47.76,25.2 41.16,30 36,42 L40.44,26.4 L23.16,26.4 C25.92,28.08 26.4,32.16 24.6,38.64 L8.4,95.28 C6.6,101.76 3.6,105.84 0,107.52 Z M27.48,71.76 L34.32,48.36 C37.44,37.44 44.76,34.8 49.68,34.8 C59.4,34.8 63.96,44.04 59.64,58.68 C56.16,70.8 49.08,78.36 39.84,78.36 C34.8,78.36 29.88,75.84 27.48,71.76 Z" id="Shape"></path>
            <path d="M71.04,83.52 L93.36,83.52 C90.6,81.84 90,77.76 91.92,71.28 L104.76,26.4 L87.48,26.4 C90.12,28.08 90.72,32.16 88.8,38.64 L79.44,71.28 C77.64,77.76 74.76,81.84 71.04,83.52 Z M96.24,7.56 C96.24,11.88 99.6,15.24 103.8,15.24 C108,15.24 111.36,11.88 111.36,7.56 C111.36,3.48 108,0 103.8,0 C99.6,0 96.24,3.48 96.24,7.56 Z" id="Shape"></path>
            <path d="M129.6,84.72 C144,84.72 157.2,74.64 161.88,58.2 C167.28,39 157.08,25.2 140.4,25.2 C125.88,25.2 112.8,35.28 108.12,51.72 C102.48,70.92 112.92,84.72 129.6,84.72 Z M121.44,53.04 C125.28,39.6 131.04,31.68 140.04,31.68 C151.08,31.68 153.24,40.92 148.56,56.88 C144.72,70.32 138.96,78.24 129.96,78.24 C119.04,78.24 116.88,69 121.44,53.04 Z" id="Shape"></path>
        </g>
        <g id="Group-Copy" transform="translate(224.507308, 56.881077) rotate(12.000000) translate(-224.507308, -56.881077) translate(183.007308, 21.881077)" fill="#1F4232">
            <path d="M43.8348869,-2.99903501 L42.1990852,-3 C35.6796611,-3 29.8641013,-2.04160358 24.76373,-0.107034824 L24.1784002,0.120517785 C18.8907688,2.12011773 14.339346,4.74436093 10.583188,7.98360179 L10.0977692,8.40959837 C3.92665208,13.7094298 0.288881285,22.8179093 -0.397246104,31.7386259 C-0.616414097,34.5881486 -0.503832475,36.7565947 -0.111057397,39.5259917 L0.298099306,42.2998872 L0.363631421,42.8553551 L0.389471287,43.2104591 L0.399154174,43.5013555 L0.401989723,43.6622584 C0.407798019,44.0478044 0.387025289,44.4032524 0.337335479,44.7511224 L0.314736625,44.9626949 L0.307191021,45.175337 C0.307191021,46.2228152 0.0716161861,47.1983974 -0.458071418,48.5392342 L-0.678922851,49.0793735 L-1.10805743,50.1013626 L-1.30992965,50.6059655 C-1.40151272,50.8435309 -1.48002242,51.0622768 -1.54976164,51.2769847 L-1.68084485,51.6984567 L-1.80130885,52.057608 C-1.84015481,52.1665069 -1.87796807,52.265668 -1.91557666,52.3583324 L-1.98892846,52.5307456 L-2.2825088,53.1799408 C-2.29463626,53.2081882 -2.30535782,53.2337213 -2.31418438,53.2555401 C-2.44871676,53.5880974 -2.54699765,53.9184753 -2.61472569,54.2802569 L-2.66628516,54.5853093 L-2.74761372,54.9153115 C-3.07928549,56.2730697 -3.10700094,57.5718952 -2.71528296,59.5946991 C-1.96255806,63.4817173 1.60870287,67.0639949 5.4615188,67.5028531 L5.93074432,67.5430405 L6.23171613,67.5602973 L6.51944684,67.5678137 L6.71348892,67.5665495 L6.91601271,67.5596605 L7.24827242,67.5376467 L7.63194093,67.5000618 L8.08641322,67.4451565 L8.63108425,67.3711816 L10.0686024,67.159026 L11.394964,66.9579215 L12.1326422,66.8520713 C12.2502563,66.8358517 12.3653444,66.8203357 12.4781163,66.805512 L13.1286348,66.7247886 L13.7336481,66.660144 C13.8312516,66.6506799 13.9273791,66.6418633 14.0222406,66.633683 L14.5778979,66.5921476 C14.9404484,66.5694284 15.2894638,66.5565316 15.6383855,66.5527399 C16.5867161,66.5424344 17.4335278,66.6099079 18.1882819,66.7608767 L19.3589666,66.9988898 L20.2129149,67.1829272 L20.6206707,67.2779762 L20.8641179,67.3383131 C21.4053605,67.4759669 21.7955577,67.6015415 22.1566572,67.753191 L22.5410744,67.9259241 L22.8186327,68.0638883 L23.2180004,68.2894409 L24.230846,68.9086249 L25.9052721,69.9535409 C29.1521714,71.9830942 32.491889,72.8683668 37.4368091,72.9830271 L38.2760848,72.9950659 L39.1466424,72.9932186 C39.2944286,72.9917749 39.443583,72.9897686 39.5941381,72.9872077 L40.514536,72.965252 L41.4701057,72.9303711 C41.6323847,72.9235019 41.7961941,72.9161101 41.9615662,72.9082039 L42.972811,72.8546562 L44.0231174,72.7891445 C47.9312833,72.5285691 51.4822338,71.5026562 54.8499817,69.9080174 L55.0078298,69.832345 C55.2134205,69.7326523 55.4362871,69.6204431 55.6690639,69.5002751 L56.38976,69.1204524 L57.1257249,68.7202237 C57.247203,68.6533377 57.3674759,68.5867408 57.4856229,68.5210029 L58.1616293,68.14144 L58.7716319,67.7945105 L59.6661151,67.9606396 L64.0219002,68.8295624 L64.9562884,69.0072937 L65.8321556,69.1651147 L66.654154,69.3030661 L67.4269359,69.4211884 L68.1551536,69.5195224 C68.5088968,69.5637491 68.8476729,69.6005704 69.174099,69.6300091 L69.8112596,69.67905 C70.2260893,69.7051907 70.6220648,69.7182339 71.005389,69.7182339 C75.4537944,69.7182339 79.2673301,67.4705963 83.5345792,62.5223365 C83.6961947,62.3349287 83.8340008,62.1282438 83.9448566,61.9069923 L84.1256574,61.5372316 C86.302498,56.9734316 86.5203805,52.2994657 85.150472,49.3218234 L85.104,49.225 L85.0451852,48.9905746 C84.8583961,48.2097432 84.6939846,47.2244664 84.5525566,46.0634658 L84.4616828,45.2637474 C84.432531,44.988707 84.4045208,44.7053041 84.3776589,44.4138539 L84.3005246,43.5156764 L84.2241973,42.4843205 L84.1561779,41.4081819 C84.1454635,41.2245725 84.1350425,41.0387063 84.1248887,40.8503879 L84.0669616,39.6894879 L83.9402225,36.537397 C83.9328505,36.348625 83.923481,36.1478835 83.9121937,35.9369208 L83.8726575,35.2751168 L83.8220907,34.562474 L83.7609701,33.8094811 L83.6948935,33.080259 C83.6814531,32.9387127 83.6688924,32.8098299 83.6559752,32.6803452 C83.6401695,32.5219068 83.6117753,32.3649783 83.5710616,32.2110467 L79.1889727,15.6430996 C79.1257313,15.4039947 79.0331646,15.1736279 78.9133797,14.9572434 C76.7259471,11.0057751 72.9054404,6.28247776 68.3740851,2.65739357 C68.2623601,2.56801355 68.1443841,2.4867407 68.0210604,2.41419735 C67.7564315,2.25853332 67.4946939,2.10715399 67.2354759,1.95994944 L66.4650085,1.53075019 L65.7074278,1.12594005 C65.4568008,0.994994899 65.2079499,0.868004676 64.9605032,0.74485945 L64.2220042,0.386848838 C61.0368756,-1.11549822 58.0262425,-1.98661837 54.373367,-2.46802112 L53.5186232,-2.57230593 C52.9406979,-2.63736367 52.3460845,-2.69363703 51.7318091,-2.74200543 L50.7952778,-2.80873925 L49.8270229,-2.86427519 C49.6628795,-2.87263466 49.4973214,-2.88055504 49.3303021,-2.88805007 L48.3102797,-2.92802587 L47.2529575,-2.95845271 C47.0735049,-2.96276474 46.8924052,-2.96670639 46.7096119,-2.97029138 L45.5921578,-2.98763144 L44.4318276,-2.99707143 C44.2347423,-2.99802306 44.0357776,-2.99867301 43.8348869,-2.99903501 Z M42.1973186,2.99999948 L44.3930507,3.00275821 L45.4878202,3.01121046 L46.5367468,3.02667549 L47.5422639,3.04980058 L48.5068051,3.08123305 L49.4328037,3.12162019 L50.3226935,3.1716093 L51.1789077,3.23184768 L52.00388,3.30298263 C56.3247466,3.7125773 59.4164524,4.61471034 62.9402683,6.45127131 L63.6064532,6.8066847 C63.8304731,6.92887786 64.0565865,7.05482902 64.2851991,7.18464605 L64.786,7.473 L65.0714972,7.70545646 C68.4614984,10.5146989 71.3904282,14.055255 73.2060876,17.0711331 L73.487,17.551 L77.708,33.512 L77.7842706,34.3375677 L77.8392647,35.0151897 L77.8847127,35.6547498 L77.9200702,36.2442106 L78.0733558,39.9664165 C78.1405591,41.4209075 78.2192478,42.7383287 78.3196025,43.9937673 C78.5576448,46.9716793 78.8966455,49.3533342 79.4038243,51.128671 C79.4453237,51.2739363 79.4977071,51.4157551 79.5604826,51.5529358 L79.6623786,51.7550794 C79.8539987,52.1020007 80.031356,52.984375 79.9952771,54.0895285 L79.9783045,54.4255659 C79.8936213,55.6681205 79.5609137,57.0237011 78.9448654,58.4406148 L78.738,58.893 L78.4454871,59.2232657 C75.4933585,62.5035253 73.3011905,63.7182339 71.005389,63.7182339 L70.7921909,63.7161204 L70.3398049,63.6991695 C70.0262159,63.6821951 69.6880338,63.6538476 69.3216801,63.6139759 L68.7505737,63.5455064 L68.1345262,63.4596371 C67.9213887,63.4281015 67.7003136,63.3936471 67.4708538,63.3562548 L66.7568728,63.2352461 L65.9898992,63.0964974 L64.3984322,62.7882799 L60.6152432,62.0327813 L59.6088796,61.8497306 L59.0944044,61.7678291 L58.6080741,61.696688 C58.0205075,61.61274 57.421243,61.7049676 56.8861077,61.961701 L54.8700191,63.1054962 L53.8685243,63.6600242 L53.2836263,63.9753945 L52.7454136,64.2563062 L52.282266,64.4852103 C49.5542671,65.7769261 46.7189704,66.5960779 43.6239561,66.8024367 L42.6743791,66.8620049 L41.7666685,66.9110666 L40.8991923,66.9493913 L40.0703179,66.9767484 C39.9352984,66.9803811 39.8018192,66.9835473 39.6698464,66.986242 L38.8958145,66.9967156 C37.6349825,67.0046157 36.5179891,66.9644165 35.5108286,66.8713158 L34.9194402,66.8090688 C32.60443,66.5343807 30.8828824,65.9494475 29.2847017,64.987883 L26.7093568,63.386873 L26.0253206,62.976734 L25.5514789,62.7159132 L25.246134,62.5658072 L24.8198712,62.3699426 C24.1670564,62.0729624 23.5169316,61.8420359 22.7416656,61.6287982 L22.1980496,61.4869896 L21.5771156,61.3398229 L20.8394197,61.1787977 L19.3651132,60.8774195 C18.1712099,60.6386105 16.9149598,60.5385132 15.5731877,60.5530941 C15.130806,60.5579014 14.6968032,60.5733297 14.2549766,60.5999614 L13.5843433,60.6483842 C13.2440673,60.6768697 12.8948334,60.7118209 12.5298059,60.7534835 L11.7766675,60.8458302 C11.6469596,60.862737 11.5149906,60.8804077 11.3805072,60.8988514 L10.5414093,61.0188627 L7.81831677,61.4241021 L7.3136987,61.4902446 L6.85035332,61.5388651 L6.63759542,61.5526111 L6.51459502,61.5562981 L6.39746425,61.5560523 C6.3221303,61.5546108 6.2512962,61.5507286 6.17892245,61.5450935 C5.04990208,61.4571861 3.45232892,59.8846289 3.17528337,58.4539852 L3.1327465,58.2279865 L3.06579961,57.8303971 C2.96442712,57.1624892 2.97765146,56.809974 3.05758478,56.4405428 L3.19194761,55.8820725 C3.20000774,55.8458706 3.2077429,55.8098751 3.21536239,55.7730224 L3.25232941,55.5794694 L3.271,55.454 L3.53522906,54.8742675 C3.7065731,54.4780223 3.86708303,54.0494558 4.03003051,53.5385417 L4.12819768,53.2217113 C4.14856719,53.1541008 4.17290193,53.0801973 4.20197713,52.9979178 L4.30419938,52.7238682 L4.50868646,52.2215424 L4.96395154,51.1363454 L5.13626385,50.7084947 C5.85758608,48.8777617 6.24893586,47.336883 6.30116276,45.5838721 L6.304,45.382 L6.27704656,45.5995517 C6.37265843,44.930189 6.41170621,44.2620317 6.40130897,43.5718779 L6.38922563,43.024549 L6.37013504,42.6379442 L6.3461116,42.3396478 L6.2795703,41.7537506 L6.16904672,40.9582885 L5.91657708,39.2758582 C5.51009839,36.5981096 5.38919715,34.7455952 5.58508499,32.1987505 C6.14780428,24.88253 9.08479552,17.4030204 13.7444889,13.1928248 L14.0508177,12.9229172 C17.2238428,10.0898613 21.0938669,7.7771959 25.7150896,5.95847695 L26.3499176,5.71352899 C30.8919051,3.90483282 36.1544752,2.99999948 42.1973186,2.99999948 Z" id="Path-Copy-7" fill-rule="nonzero"></path>
            <path d="M73.5542926,12.334168 C73.4446813,12.3409615 73.3355259,12.3537686 73.227319,12.3725317 C70.0380358,12.9255525 66.9175909,13.5180638 63.8659672,14.1500999 C63.6021631,14.2047376 63.3469206,14.2946604 63.1071242,14.4174429 C59.3387199,16.346972 57.8552606,20.1841654 58.5142303,25.2014239 L58.5338659,25.3294531 C58.8421195,27.0854602 59.5884816,28.7501732 60.7404095,30.3033998 C62.2439222,32.3306932 64.5851734,33.3020396 67.454184,33.3020396 C67.6138246,33.3020396 67.7732106,33.2892971 67.9308234,33.2639334 L72.2689699,32.5562184 L74.9049138,32.1061504 L76.0968517,31.889228 L77.147426,31.6803995 L77.6887741,31.5572608 L78.0044831,31.4726848 L78.1763289,31.4166465 C79.1433888,31.0625662 80.4696536,30.1593384 81.2692781,29.4442749 L81.6184236,29.1207434 C81.7588091,28.9875638 81.8907771,28.8536073 82.0271115,28.7020108 C82.385992,28.3029551 82.7130682,27.8476534 83.0084884,27.3130591 C83.5971689,26.2477793 84.0210619,24.9339915 84.2658835,23.3214465 C84.5774603,21.2692113 84.1148857,19.310134 83.1665232,17.5028572 C82.8517924,16.9030807 82.5025658,16.359976 82.1405371,15.8758964 C82.0536868,15.7597662 81.9692803,15.6513835 81.8880675,15.5509226 L81.682,15.305 L81.7885309,15.4437864 C80.0444107,13.0710865 77.1820696,12.1093266 73.5542926,12.334168 Z M77.0581806,19.1309449 L77.2252875,19.3269677 L77.3356295,19.4693436 C77.5164635,19.7111423 77.695562,19.9896698 77.853582,20.2908055 C78.2559357,21.0575636 78.429339,21.7919541 78.3338614,22.4208284 C78.2055799,23.2657683 78.0260687,23.8668695 77.8248278,24.2801596 L77.683076,24.5438997 L77.6392682,24.6069632 L77.5748575,24.6784232 L77.2986029,24.9452838 L77.2313142,25.0053941 C77.1733524,25.0547146 77.0985617,25.1138517 77.014959,25.1772353 L76.7457309,25.3745554 C76.6991257,25.4077086 76.6523217,25.4405309 76.6063209,25.472326 L76.3479716,25.6451999 L76.1599443,25.7602911 L75.6905065,25.8596986 L74.6663925,26.0531554 L72.9434513,26.3560354 L69.4318286,26.9421196 L67.233,27.299 L67.0425473,27.2905533 C66.2140284,27.2412134 65.7870041,27.0357554 65.5596895,26.7292509 L65.3643789,26.4541316 C64.9302803,25.8139639 64.646836,25.1857839 64.4987342,24.560091 L64.454,24.345 L64.4281459,24.1338843 C64.1745569,21.8868608 64.5523227,20.656536 65.4716956,19.9847135 L65.55,19.93 L66.8835084,19.6587825 C68.6924974,19.2967576 70.5264172,18.9485352 72.3852643,18.6141227 L74.081,18.314 L74.4331367,18.301659 C75.7981142,18.2756875 76.5470338,18.5297467 76.8965496,18.9260647 L77.0581806,19.1309449 Z" id="Path-2-Copy-7" fill-rule="nonzero" transform="translate(71.362579, 22.802222) rotate(-8.000000) translate(-71.362579, -22.802222) "></path>
            <path d="M46.9303717,21.559163 L41.4913681,22.4057008 L39.6765714,22.6999633 L37.9378325,22.9937778 L36.7641339,23.2046956 L36.0041193,23.3526053 L35.5360007,23.4532464 L35.2651897,23.5186649 C35.2388855,23.5254616 35.213838,23.5321019 35.190042,23.5385868 C33.0832906,24.1127236 31.1702456,25.7117758 30.1196235,27.6463504 L29.7715289,28.3322401 L29.5839993,28.717138 C29.5548183,28.7785291 29.5263147,28.8393398 29.4979493,28.9007686 C28.3710761,31.3411449 28.0245558,33.6790736 28.9551971,36.311425 L29.0666416,36.623236 L29.27902,37.1955238 L29.480933,37.7069058 C29.6790329,38.1908507 29.8678226,38.5970085 30.0664652,38.9660944 C30.4283607,39.6385107 30.8220178,40.1839051 31.3225017,40.7248542 L31.5533589,40.9678902 L31.8128119,41.2252236 L32.3252298,41.7130088 C34.2236959,43.504686 36.7682386,43.7667794 40.1889422,43.2852118 L41.3812763,43.1031587 L43.2457895,42.7901501 L44.9846552,42.4802674 L45.9433241,42.3036261 L47.5076605,42.0054881 L48.690074,41.7700687 L49.7491339,41.5487079 L50.378856,41.4102658 C50.4783973,41.387856 50.5751675,41.3657891 50.6690693,41.3440816 C50.9628575,41.276166 51.2447277,41.1643461 51.5051771,41.0123916 L51.8014642,40.8378668 L52.353231,40.5018589 C54.6312892,39.0783008 55.484198,38.031878 56.5873248,35.6053112 C57.7112345,33.133028 57.652281,30.9512813 56.9119696,28.3989426 C56.3100809,26.3238378 55.308817,24.8126935 53.3663147,23.2171885 C51.6175652,21.7808253 49.4066991,21.2496277 46.9303717,21.559163 Z M49.5580518,27.8536886 C50.5687915,28.6838757 50.8863216,29.1631038 51.1494752,30.0703667 C51.5279203,31.3751149 51.5498891,32.1881348 51.1252463,33.1222288 L50.9600981,33.4824531 L50.8069263,33.8020322 C50.4899007,34.4376769 50.2456102,34.7285339 49.6105686,35.1476772 L49.2880392,35.3519596 L48.878,35.597 L48.1510353,35.7544602 L46.7377155,36.0421422 L45.5429986,36.27356 L43.9154454,36.5762979 L42.711286,36.7922418 L41.113834,37.0673822 L40.1360432,37.2246183 L39.9931807,37.24582 C38.8597925,37.4310025 37.955006,37.50481 37.2478897,37.4620392 L37.0927054,37.4506846 L36.8323234,37.4218472 C36.7944726,37.4166548 36.7593924,37.4113676 36.7270786,37.406133 L36.4433689,37.3494173 L35.8597253,36.789047 L35.7266683,36.6501375 C35.5634128,36.4736824 35.4667991,36.3398284 35.3498651,36.1225604 L35.2428079,35.9106397 C35.2242172,35.8717054 35.2052242,35.8308825 35.1857863,35.7880491 L35.0634806,35.5059443 L34.9284555,35.1697239 L34.778668,34.773527 L34.6120753,34.3114926 C34.2898692,33.4001215 34.4131352,32.5684618 34.9452421,31.4161216 L35.0707879,31.1522507 L35.361587,30.568777 C35.6383632,30.011328 36.2753539,29.4616303 36.767642,29.3274709 L37.1318549,29.2429749 L37.5835608,29.1528298 L38.5240881,28.9808923 L39.7747281,28.7659922 L43.5190969,28.1588936 L47.7558035,27.5015477 C48.533175,27.4054137 49.0704245,27.510921 49.4564536,27.777132 L49.5580518,27.8536886 Z" id="Path-3-Copy-7" fill-rule="nonzero" transform="translate(42.935940, 32.485833) rotate(-8.000000) translate(-42.935940, -32.485833) "></path>
            <path d="M65.100384,36.6997706 C64.3232784,36.876891 63.5178857,37.0954557 62.6447339,37.3588357 L61.7827908,37.6260205 L60.5136902,38.0360965 C57.0655901,39.1528866 55.8785558,41.8740977 55.4457412,46.0221571 C55.4379578,46.0967532 55.4329744,46.1716149 55.4308017,46.2465845 C55.3367116,49.493187 55.8619925,51.1324475 58.2047223,53.2918498 C58.3734609,53.4473838 58.5594884,53.583043 58.7591551,53.6961657 C59.7603196,54.2633829 60.6481225,54.3526008 62.1296402,54.1782969 L62.6464388,54.1107297 C62.7365601,54.0979399 62.8287564,54.0844103 62.9231488,54.0701777 L63.7306209,53.9412226 L65.72117,53.597602 L65.8071679,53.5878954 L65.8559687,53.5848971 C67.9829427,53.468613 71.872997,52.0335111 73.2892817,50.4009992 C74.5994252,48.8908332 75.0824513,47.2107221 75.3482816,44.6630255 C75.6712756,41.5674784 74.8783956,38.9476193 72.1200188,37.0608418 C71.9967106,36.9764969 71.8672744,36.9014806 71.7327904,36.8364191 C69.9645568,35.980972 67.8465533,36.0738551 65.100384,36.6997706 Z M69.001,42.231 L69.0332128,42.261583 C69.398871,42.6396509 69.4761279,43.1255809 69.3806788,44.0403571 L69.352514,44.2957552 L69.2920978,44.7593411 L69.2261115,45.1629391 C69.122882,45.7251208 69.0003632,46.0968283 68.8563473,46.3319925 L68.809,46.402 L68.7035839,46.4714357 L68.5323732,46.5689945 C68.2309452,46.7316589 67.8316122,46.9068637 67.3852581,47.0715307 L67.043076,47.1921832 L66.7059594,47.3013082 L66.3862533,47.396615 L66.0963025,47.4758128 L65.8484519,47.5366107 C65.8113376,47.5450831 65.7764919,47.5526934 65.744172,47.5593939 L65.5826184,47.5882968 L65.3598808,47.6054153 L64.99876,47.643893 L64.5840934,47.7037317 L63.9328586,47.8136349 L62.7384733,48.0238182 L62.3099169,48.0931505 L61.87746,48.1552959 L61.606,48.188 L61.5802825,48.1477505 C61.4590082,47.9412083 61.4184284,47.7150814 61.4120472,47.3334124 L61.412947,47.0158722 L61.425,46.537 L61.4408761,46.3955034 L61.5008229,45.9350034 L61.5669008,45.5238482 L61.638655,45.1602209 C61.8247569,44.3090481 62.0598099,43.8864148 62.3118314,43.7645652 L62.3693016,43.74193 L63.3108428,43.4365795 L64.1237675,43.1804624 L64.3774772,43.1031895 C65.128273,42.8767173 65.8055371,42.6929237 66.4337285,42.5497444 C67.252047,42.3632306 67.9518219,42.2548149 68.5008684,42.230737 L68.7442041,42.2252163 L69.001,42.231 Z" id="Path-6-Copy-7" fill-rule="nonzero" transform="translate(65.418287, 45.235357) rotate(-8.000000) translate(-65.418287, -45.235357) "></path>
            <path d="M46.2104554,24.8973775 C47.1912506,24.6042626 47.3566658,24.7720894 47.9245254,24.9454882 C48.4923849,25.1188869 50.7300305,26.2086285 51.7600111,28.974645 C52.4466648,30.818656 52.3482715,32.60922 51.4648314,34.346337 C50.8349248,35.7054536 49.5834662,36.3891617 47.7104554,36.3974613 C44.9009394,36.4097431 42.1304659,35.0548805 41.7104554,31.3973775 C41.290445,27.7398745 45.2644773,25.1800872 46.2104554,24.8973775 Z" id="Path-4-Copy-7" stroke="#1F4232" stroke-linecap="square" stroke-linejoin="round" transform="translate(46.944968, 30.567594) rotate(-8.000000) translate(-46.944968, -30.567594) "></path>
            <path d="M73.0858701,16.3124948 C76.0685125,15.46851 78.0980536,15.46851 79.1744936,16.3124948 C80.63449,17.4572078 81.2940281,18.140551 81.1232601,19.8052367 C81.10517,19.9815838 80.3559412,22.5152262 79.1872955,25.0156403 C78.4081983,26.682583 77.5582889,27.2815345 76.6375671,26.8124948 C72.5784848,26.4791615 70.4279525,24.8411302 70.1859702,21.8984009 C69.9439878,18.9556717 70.9106211,17.093703 73.0858701,16.3124948 Z" id="Path-5-Copy-7" stroke="#1F4232" stroke-linecap="square" stroke-linejoin="round" transform="translate(75.649634, 21.323248) rotate(-8.000000) translate(-75.649634, -21.323248) "></path>
        </g>
        <g id="BLOG" transform="translate(157.068000, 118.212000)" fill="#1F4232" fill-rule="nonzero">
            <path d="M0,29.788 L21.12,29.788 C30.976,29.744 31.46,29.7 33.088,29.128 C35.728,28.248 36.828,26.092 36.828,21.912 C36.828,17.204 35.64,15.488 31.768,14.828 C34.716,13.992 35.728,12.276 35.728,8.096 C35.728,2.772 34.144,0.924 29.348,0.572 C28.028,0.484 28.028,0.484 21.076,0.44 L0,0.44 L0,29.788 Z M8.492,12.012 L8.492,7.348 L21.076,7.348 C25.124,7.392 25.256,7.392 25.74,7.48 C26.62,7.7 27.06,8.36 27.06,9.592 C27.06,10.648 26.708,11.396 26.092,11.66 C25.52,11.924 24.244,12.012 21.076,12.012 L8.492,12.012 Z M8.492,22.748 L8.492,17.864 L21.12,17.864 C26.268,17.864 26.268,17.864 26.752,17.996 C27.764,18.216 28.16,18.832 28.16,20.196 C28.16,21.428 27.852,22.088 27.104,22.396 C26.444,22.704 26.444,22.704 21.12,22.748 L8.492,22.748 Z" id="Shape"></path>
            <polygon id="Path" points="39.952 0.44 39.952 29.788 70.18 29.788 70.18 22.308 49.324 22.308 49.324 0.44"></polygon>
            <path d="M92.312,0 C80.124,0 77.308,0.352 75.064,2.024 C72.864,3.74 72.16,6.776 72.16,14.916 C72.16,23.496 72.82,26.444 75.064,28.204 C77.308,29.876 80.168,30.228 92.4,30.228 C104.456,30.228 107.316,29.876 109.56,28.204 C111.804,26.444 112.464,23.54 112.464,15.092 C112.464,6.688 111.804,3.784 109.56,2.024 C107.316,0.352 104.544,0 92.312,0 Z M92.312,7.612 C100.408,7.612 101.464,7.744 102.476,8.932 C103.268,9.9 103.532,11.66 103.532,15.928 C103.532,19.448 103.224,20.768 102.212,21.56 C101.068,22.44 99.484,22.616 92.4,22.616 C85.14,22.616 83.556,22.44 82.412,21.56 C81.356,20.724 81.092,19.536 81.092,15.884 C81.092,12.144 81.268,10.472 81.796,9.46 C82.676,7.744 83.556,7.612 92.312,7.612 Z" id="Shape"></path>
            <path d="M133.76,13.156 L133.76,19.008 L145.508,19.008 C145.508,21.296 145.376,21.824 144.892,22.308 C144.056,23.056 142.428,23.188 134.816,23.188 L129.58,23.1 C127.028,23.012 126.236,22.88 125.532,22.264 C124.52,21.516 124.256,19.888 124.256,15.004 C124.256,7.392 124.3,7.348 134.86,7.348 C141.548,7.348 143.66,7.524 144.54,8.14 C145.112,8.536 145.2,8.932 145.244,10.604 L154.176,10.604 C154.132,6.292 153.78,4.488 152.548,3.036 C150.612,0.748 146.52,0 135.652,0 C125.4,0 120.648,0.572 118.536,2.068 C116.072,3.784 115.324,6.732 115.324,14.652 C115.324,24.288 115.808,26.444 118.404,28.16 C120.868,29.832 124.036,30.228 134.068,30.228 C141.988,30.228 145.112,30.052 148.148,29.436 C151.668,28.732 153.56,26.708 153.912,23.276 C154.044,21.868 154.22,16.764 154.22,13.948 L154.22,13.156 L133.76,13.156 Z" id="Path"></path>
        </g>
    </g>
</svg>