<?xml version="1.0" encoding="UTF-8"?>
<svg width="428px" height="146px" viewBox="0 0 428 146" version="1.1" xmlns="http://www.w3.org/2000/svg" xmlns:xlink="http://www.w3.org/1999/xlink">
    <title>Artboard Copy 43</title>
    <g id="Artboard-Copy-43" stroke="none" stroke-width="1" fill="none" fill-rule="evenodd">
        <path d="M-0.0116348886,84.7814168 L23.8683651,84.7814168 C20.8683651,82.7414168 20.3883651,78.7814168 22.0683651,72.5414168 L26.9883651,55.2614168 L43.5483651,43.0214168 L57.3483651,76.7414168 C58.5483651,79.8614168 57.5883651,82.5014168 54.2283651,84.7814168 L78.2283651,84.7814168 C74.0283651,81.6614168 72.8283651,79.3814168 70.6683651,74.1014168 L54.5883651,34.6214168 L82.4283651,13.8614168 C87.3483651,10.1414168 92.2683651,7.3814168 98.0283651,5.1014168 L73.7883651,5.1014168 C76.6683651,8.2214168 73.6683651,12.5414168 68.1483651,16.7414168 L29.9883651,44.9414168 L37.9083651,17.3414168 C39.7083651,11.1014168 42.5883651,7.1414168 46.6683651,5.1014168 L22.7883651,5.1014168 C25.7883651,7.1414168 26.3883651,11.1014168 24.5883651,17.3414168 L8.74836511,72.5414168 C6.94836511,78.7814168 4.06836511,82.7414168 -0.0116348886,84.7814168 Z" id="Path" fill="#FFFFFF" fill-rule="nonzero"></path>
        <path d="M78.1083651,84.7814168 L100.428365,84.7814168 C97.6683651,83.1014168 97.0683651,79.0214168 98.9883651,72.5414168 L111.828365,27.6614168 L94.5483651,27.6614168 C97.1883651,29.3414168 97.7883651,33.4214168 95.8683651,39.9014168 L86.5083651,72.5414168 C84.7083651,79.0214168 81.8283651,83.1014168 78.1083651,84.7814168 Z M103.308365,8.8214168 C103.308365,13.1414168 106.668365,16.5014168 110.868365,16.5014168 C115.068365,16.5014168 118.428365,13.1414168 118.428365,8.8214168 C118.428365,4.7414168 115.068365,1.2614168 110.868365,1.2614168 C106.668365,1.2614168 103.308365,4.7414168 103.308365,8.8214168 Z" id="Shape" fill="#FFFFFF" fill-rule="nonzero"></path>
        <path d="M105.588365,84.7814168 L127.908365,84.7814168 C125.148365,83.1014168 124.548365,79.0214168 126.468365,72.5414168 L133.188365,49.0214168 C135.828365,39.7814168 140.988365,36.0614168 148.308365,36.0614168 C155.988365,36.0614168 159.108365,40.2614168 156.348365,50.1014168 L149.868365,72.5414168 C148.068365,79.0214168 145.068365,83.1014168 141.468365,84.7814168 L163.668365,84.7814168 C160.908365,83.1014168 160.428365,79.0214168 162.228365,72.5414168 L168.828365,49.8614168 C173.388365,34.2614168 167.028365,26.4614168 155.508365,26.4614168 C146.148365,26.4614168 139.428365,31.7414168 134.988365,42.9014168 L139.308365,27.6614168 L122.028365,27.6614168 C124.668365,29.3414168 125.268365,33.4214168 123.348365,39.9014168 L113.988365,72.5414168 C112.188365,79.0214168 109.308365,83.1014168 105.588365,84.7814168 Z" id="Path" fill="#FFFFFF" fill-rule="nonzero"></path>
        <path d="M262.445577,108.520945 L287.765577,108.520945 C282.485577,106.480945 281.405577,102.520945 283.205577,96.2809445 L287.645577,81.0409445 C291.005577,83.8009445 296.285577,85.7209445 302.405577,85.7209445 C316.805577,85.7209445 329.885577,75.4009445 334.805577,58.4809445 C340.325577,40.0009445 332.645577,26.2009445 318.365577,26.2009445 C310.205577,26.2009445 303.605577,31.0009445 298.445577,43.0009445 L302.885577,27.4009445 L285.605577,27.4009445 C288.365577,29.0809445 288.845577,33.1609445 287.045577,39.6409445 L270.845577,96.2809445 C269.045577,102.760945 266.045577,106.840945 262.445577,108.520945 Z M289.925577,72.7609445 L296.765577,49.3609445 C299.885577,38.4409445 307.205577,35.8009445 312.125577,35.8009445 C321.845577,35.8009445 326.405577,45.0409445 322.085577,59.6809445 C318.605577,71.8009445 311.525577,79.3609445 302.285577,79.3609445 C297.245577,79.3609445 292.325577,76.8409445 289.925577,72.7609445 Z" id="Shape" fill="#FFFFFF" fill-rule="nonzero"></path>
        <path d="M333.485577,84.5209445 L355.805577,84.5209445 C353.045577,82.8409445 352.445577,78.7609445 354.365577,72.2809445 L367.205577,27.4009445 L349.925577,27.4009445 C352.565577,29.0809445 353.165577,33.1609445 351.245577,39.6409445 L341.885577,72.2809445 C340.085577,78.7609445 337.205577,82.8409445 333.485577,84.5209445 Z M358.685577,8.56094453 C358.685577,12.8809445 362.045577,16.2409445 366.245577,16.2409445 C370.445577,16.2409445 373.805577,12.8809445 373.805577,8.56094453 C373.805577,4.48094453 370.445577,1.00094453 366.245577,1.00094453 C362.045577,1.00094453 358.685577,4.48094453 358.685577,8.56094453 Z" id="Shape" fill="#FFFFFF" fill-rule="nonzero"></path>
        <path d="M392.045577,85.7209445 C406.445577,85.7209445 419.645577,75.6409445 424.325577,59.2009445 C429.725577,40.0009445 419.525577,26.2009445 402.845577,26.2009445 C388.325577,26.2009445 375.245577,36.2809445 370.565577,52.7209445 C364.925577,71.9209445 375.365577,85.7209445 392.045577,85.7209445 Z M383.885577,54.0409445 C387.725577,40.6009445 393.485577,32.6809445 402.485577,32.6809445 C413.525577,32.6809445 415.685577,41.9209445 411.005577,57.8809445 C407.165577,71.3209445 401.405577,79.2409445 392.405577,79.2409445 C381.485577,79.2409445 379.325577,70.0009445 383.885577,54.0409445 Z" id="Shape" fill="#FFFFFF" fill-rule="nonzero"></path>
        <g id="Group-Copy" transform="translate(223.510973, 57.879334) rotate(12.000000) translate(-223.510973, -57.879334) translate(179.005028, 19.881801)" fill="#FFFFFF">
            <path d="M46.8376092,0.000964466576 L45.2035741,5.07426542e-13 C38.6823834,5.07426542e-13 32.8668235,0.958395898 27.7664523,2.89296466 L27.1811224,3.12051727 C21.8934911,5.12011721 17.3420682,7.74436041 13.5859102,10.9836013 L13.1004915,11.4095979 C6.92937434,16.7094293 3.29160354,25.8179088 2.60547615,34.7386254 C2.38630816,37.5881481 2.49888978,39.7565942 2.89166486,42.5259911 L3.30082156,45.2998866 L3.36635368,45.8553546 L3.39219354,46.2104585 L3.40187643,46.501355 L3.40471198,46.6622579 C3.41052028,47.0478039 3.38974755,47.4032518 3.34005774,47.7511219 L3.31745888,47.9626944 L3.30991328,48.1753365 C3.30991328,49.2228147 3.07433844,50.1983969 2.54465084,51.5392337 L2.32379941,52.079373 L1.89466483,53.1013621 L1.6927926,53.605965 C1.60120954,53.8435304 1.52269984,54.0622763 1.45296062,54.2769842 L1.32187741,54.6984561 L1.20141341,55.0576074 C1.16256745,55.1665064 1.12475419,55.2656675 1.0871456,55.3583319 L1.0137938,55.5307451 L0.720213457,56.1799402 C0.708085997,56.2081877 0.697364434,56.2337208 0.688537873,56.2555396 C0.554005499,56.5880968 0.455724602,56.9184748 0.387996569,57.2802564 L0.336437096,57.5853088 L0.255108538,57.9153109 C-0.076563231,59.2730692 -0.104278684,60.5718946 0.287439297,62.5946986 C1.04016419,66.4817168 4.61142513,70.0639944 8.46424106,70.5028526 L8.93346658,70.54304 L9.23443839,70.5602968 L9.5221691,70.5678132 L9.71621118,70.566549 L9.91873497,70.55966 L10.2509947,70.5376462 L10.6346632,70.5000613 L11.0891355,70.445156 L11.6338065,70.3711811 L13.0713247,70.1590255 L14.3976862,69.957921 L15.1353645,69.8520708 C15.2529786,69.8358512 15.3680666,69.8203352 15.4808385,69.8055115 L16.131357,69.7247881 L16.7363703,69.6601434 C16.8339738,69.6506793 16.9301013,69.6418628 17.0249628,69.6336825 L17.5806202,69.5921471 C17.9431707,69.5694279 18.2921861,69.5565311 18.6411077,69.5527393 C19.5894384,69.5424339 20.43625,69.6099074 21.1910042,69.7608762 L22.3616888,69.9988893 L23.2156371,70.1829267 L23.623393,70.2779757 L23.8668402,70.3383126 C24.4080828,70.4759664 24.7982799,70.601541 25.1593795,70.7531905 L25.5437966,70.9259236 L25.821355,71.0638878 L26.2207227,71.2894403 L27.2335683,71.9086244 L28.9079944,72.9535404 C32.1548936,74.9830937 35.4946113,75.8683663 40.4395314,75.9830266 L41.2788071,75.9950654 L42.1493646,75.9932181 C42.2971508,75.9917744 42.4463053,75.9897681 42.5968604,75.9872072 L43.5172583,75.9652514 L44.4728279,75.9303706 C44.635107,75.9235014 44.7989163,75.9161096 44.9642884,75.9082034 L45.9755332,75.8546557 L47.0258397,75.789144 C50.9340055,75.5285686 54.4849561,74.5026557 57.8527039,72.9080168 L58.0105521,72.8323445 C58.2161428,72.7326518 58.4390093,72.6204426 58.6717862,72.5002745 L59.3924822,72.1204519 L60.1284472,71.7202232 C60.2499253,71.6533372 60.3701982,71.5867403 60.4883452,71.5210024 L61.1643515,71.1414394 L61.7743541,70.79451 L62.6688374,70.960639 L67.0246225,71.8295619 L67.9590106,72.0072932 L68.8348778,72.1651142 L69.6568762,72.3030655 L70.4296582,72.4211879 L71.1578759,72.5195219 C71.511619,72.5637486 71.8503952,72.6005699 72.1768212,72.6300086 L72.8139819,72.6790495 C73.2288116,72.7051901 73.6247871,72.7182334 74.0081113,72.7182334 C78.4565166,72.7182334 82.2700523,70.4705958 86.5373015,65.522336 C86.698917,65.3349282 86.836723,65.1282433 86.9475789,64.9069918 L87.1283796,64.537231 C89.3052202,59.9734311 89.5231028,55.2994652 88.1531942,52.3218229 L88.1067223,52.2249995 L88.0479074,51.9905741 C87.8611184,51.2097427 87.6967069,50.2244658 87.5552788,49.0634652 L87.4644051,48.2637469 C87.4352533,47.9887065 87.407243,47.7053036 87.3803811,47.4138534 L87.3032469,46.5156759 L87.2269196,45.48432 L87.1589002,44.4081814 C87.1481857,44.224572 87.1377648,44.0387058 87.127611,43.8503874 L87.0696838,42.6894874 L86.9429448,39.5373964 C86.9355727,39.3486244 86.9262033,39.147883 86.914916,38.9369203 L86.8753797,38.2751163 L86.8248129,37.5624735 L86.7636924,36.8094806 L86.6976158,36.0802584 C86.6841753,35.9387122 86.6716147,35.8098294 86.6586974,35.6803447 C86.6428917,35.5219063 86.6144975,35.3649777 86.5737838,35.2110462 L82.1916949,18.6430991 C82.1284536,18.4039942 82.0358868,18.1736273 81.9161019,17.9572429 C79.7286694,14.0057746 75.9081626,9.28247724 71.3768074,5.65739305 C71.2650824,5.56801303 71.1471063,5.48674018 71.0237826,5.41419683 C70.7591538,5.2585328 70.4974162,5.10715347 70.2381981,4.95994892 L69.4677308,4.53074967 L68.71015,4.12593953 C68.4595231,3.99499438 68.2106721,3.86800416 67.9632254,3.74485893 L67.2247264,3.38684832 C64.0395978,1.88450126 61.0289647,1.01338111 57.3760892,0.531978356 L56.5213455,0.427693548 C55.9434201,0.362635813 55.3488068,0.306362452 54.7345314,0.257994048 L53.798,0.191260233 L52.8297452,0.135724292 C52.6656018,0.127364816 52.5000437,0.119444436 52.3330244,0.111949412 L51.313002,0.0719736053 L50.2556798,0.041546769 C50.0762272,0.0372347349 49.8951275,0.0332930927 49.7123342,0.0297081018 L48.5948801,0.0123680431 L47.4345499,0.00292805084 C47.2374646,0.00197641535 47.0384998,0.00132646755 46.8376092,0.000964466576 Z M44.4802041,6.00434262 L45.2017223,5.99899948 L47.395773,6.00275769 L48.4905425,6.01120994 L49.5394691,6.02667497 L50.5449862,6.04980006 L51.5095273,6.08123253 L52.435526,6.12161967 L53.3254157,6.17160878 L54.18163,6.23184716 L55.0066023,6.30298211 C59.3274688,6.71257678 62.4191746,7.61470982 65.9429906,9.45127079 L66.6091754,9.80668418 C66.8331953,9.92887734 67.0593088,10.0548285 67.2879214,10.1846455 L67.7887223,10.4729995 L68.0742194,10.7054559 C71.4642207,13.5146984 74.3931504,17.0552545 76.2088098,20.0711325 L76.4897223,20.5509995 L80.7107223,36.5119995 L80.7869928,37.3375672 L80.8419869,38.0151892 L80.887435,38.6547493 L80.9227925,39.2442101 L81.076078,42.966416 C81.1432813,44.4209069 81.2219701,45.7383282 81.3223248,46.9937667 C81.5603671,49.9716787 81.8993678,52.3533337 82.4065465,54.1286705 C82.448046,54.2739358 82.5004294,54.4157546 82.5632049,54.5529353 L82.6651008,54.7550789 C82.8567209,55.1020002 83.0340782,55.9843745 82.9979993,57.089528 L82.9810267,57.4255654 C82.8963436,58.66812 82.563636,60.0237006 81.9475876,61.4406143 L81.7407223,61.8929995 L81.4482094,62.2232651 C78.4960808,65.5035248 76.3039128,66.7182334 74.0081113,66.7182334 L73.7949132,66.7161198 L73.3425272,66.699169 C73.0289381,66.6821945 72.690756,66.6538471 72.3244024,66.6139754 L71.753296,66.5455059 L71.1372485,66.4596366 C70.9241109,66.428101 70.7030359,66.3936465 70.4735761,66.3562543 L69.759595,66.2352455 L68.9926215,66.0964969 L67.4011544,65.7882793 L63.6179655,65.0327808 L62.6116018,64.8497301 L62.0971266,64.7678286 L61.6107964,64.6966875 C61.0232297,64.6127394 60.4239652,64.7049671 59.8888299,64.9617005 L57.8727413,66.1054956 L56.8712466,66.6600237 L56.2863485,66.975394 L55.7481358,67.2563057 L55.2849883,67.4852098 C52.5569894,68.7769256 49.7216927,69.5960774 46.6266784,69.8024362 L45.6771013,69.8620044 L44.7693908,69.9110661 L43.9019145,69.9493907 L43.0730402,69.9767478 C42.9380206,69.9803806 42.8045415,69.9835467 42.6725687,69.9862415 L41.8985368,69.9967151 C40.6377048,70.0046152 39.5207114,69.964416 38.5135509,69.8713153 L37.9221625,69.8090683 C35.6071523,69.5343801 33.8856047,68.949447 32.287424,67.9878825 L29.7120791,66.3868725 L29.0280429,65.9767335 L28.5542011,65.7159127 L28.2488562,65.5658067 L27.8225935,65.3699421 C27.1697786,65.0729619 26.5196539,64.8420354 25.7443879,64.6287977 L25.2007719,64.4869891 L24.5798378,64.3398224 L23.8421419,64.1787972 L22.3678355,63.877419 C21.1739322,63.63861 19.917682,63.5385126 18.57591,63.5530936 C18.1335283,63.5579009 17.6995255,63.5733292 17.2576988,63.5999609 L16.5870655,63.6483837 C16.2467896,63.6768692 15.8975556,63.7118204 15.5325281,63.753483 L14.7793897,63.8458296 C14.6496819,63.8627364 14.5177128,63.8804071 14.3832294,63.8988509 L13.5441316,64.0188622 L10.821039,64.4241016 L10.316421,64.4902441 L9.85307557,64.5388646 L9.64031768,64.5526106 L9.51731728,64.5562976 L9.40018651,64.5560517 C9.32485255,64.5546102 9.25401845,64.5507281 9.1816447,64.545093 C8.05262434,64.4571856 6.45505118,62.8846283 6.17800562,61.4539847 L6.13546876,61.227986 L6.06852187,60.8303966 C5.96714937,60.1624887 5.98037372,59.8099735 6.06030704,59.4405423 L6.19466987,58.882072 C6.20273,58.8458701 6.21046516,58.8098746 6.21808464,58.7730219 L6.25505167,58.5794688 L6.27372226,58.4539995 L6.53795132,57.874267 C6.70929535,57.4780218 6.86980529,57.0494553 7.03275277,56.5385412 L7.13091993,56.2217108 C7.15128945,56.1541003 7.17562418,56.0801968 7.20469939,55.9979173 L7.30692163,55.7238677 L7.51140872,55.2215419 L7.9666738,54.1363449 L8.13898611,53.7084942 C8.86030834,51.8777612 9.25165812,50.3368825 9.30388501,48.5838716 L9.30672226,48.3819995 L9.27976882,48.5995511 C9.37538069,47.9301885 9.41442847,47.2620312 9.40403122,46.5718774 L9.39194789,46.0245484 L9.37285729,45.6379437 L9.34883386,45.3396473 L9.28229255,44.7537501 L9.17176898,43.958288 L8.91929933,42.2758577 C8.51282065,39.5981091 8.39191941,37.7455947 8.58780725,35.19875 C9.15052653,27.8825295 12.0875178,20.4030198 16.7472112,16.1928243 L17.05354,15.9229167 C20.226565,13.0898608 24.0965892,10.7771954 28.7178119,8.95847643 L29.3526399,8.71352847 C33.7129479,6.97718014 38.7373448,6.07383229 44.4802041,6.00434262 Z" id="Path-Copy-7" fill-rule="nonzero"></path>
            <path d="M76.5570148,15.3341675 C76.4474036,15.340961 76.3382481,15.3537681 76.2300413,15.3725312 C73.040758,15.925552 69.9203131,16.5180632 66.8686895,17.1500994 C66.6048854,17.2047371 66.3496429,17.2946599 66.1098464,17.4174424 C62.3414421,19.3469715 60.8579828,23.1841649 61.5169526,28.2014234 L61.5365882,28.3294526 C61.8448418,30.0854597 62.5912038,31.7501727 63.7431318,33.3033993 C65.2466445,35.3306927 67.5878957,36.3020391 70.4569062,36.3020391 C70.6165469,36.3020391 70.7759328,36.2892966 70.9335457,36.2639329 L75.2716921,35.5562179 L77.9076361,35.1061499 L79.099574,34.8892275 L80.1501482,34.680399 L80.6914964,34.5572603 L81.0072053,34.4726843 L81.1790511,34.416646 C82.146111,34.0625656 83.4723759,33.1593379 84.2720003,32.4442744 L84.6211459,32.1207428 C84.7615314,31.9875633 84.8934993,31.8536068 85.0298338,31.7020103 C85.3887143,31.3029546 85.7157905,30.8476529 86.0112107,30.3130586 C86.5998911,29.2477788 87.0237842,27.933991 87.2686058,26.321446 C87.5801825,24.2692108 87.1176079,22.3101334 86.1692454,20.5028567 L86.0052945,20.2001324 C85.6204739,19.5114584 85.2224673,18.9470711 84.8678242,18.5176517 L84.6807223,18.2989995 L84.7912532,18.4437859 C83.047133,16.071086 80.1847918,15.1093261 76.5570148,15.3341675 Z M80.0609028,22.1309444 L80.1723194,22.2583568 C80.2169186,22.3065453 80.278037,22.3806376 80.3496217,22.4769058 L80.504953,22.6979059 C80.6154194,22.8634785 80.737319,23.064057 80.8563042,23.290805 C81.258658,24.0575631 81.4320613,24.7919536 81.3365836,25.4208278 C81.2083022,26.2657678 81.028791,26.866869 80.8275501,27.2801591 L80.6857982,27.5438992 L80.6419905,27.6069627 L80.5775798,27.6784227 L80.3013252,27.9452832 L80.2340364,28.0053936 C80.1760746,28.0547141 80.101284,28.1138512 80.0176812,28.1772348 L79.7484532,28.3745549 C79.701848,28.4077081 79.655044,28.4405304 79.6090432,28.4723254 L79.3506938,28.6451994 L79.1626666,28.7602906 L78.6932288,28.8596981 L77.6691148,29.0531549 L75.9461735,29.3560349 L72.4345508,29.9421191 L70.2357223,30.2989995 L70.0452696,30.2905527 C69.2167506,30.2412129 68.7897263,30.0357548 68.5624117,29.7292503 L68.3671011,29.4541311 C67.9330026,28.8139634 67.6495582,28.1857833 67.5014565,27.5600905 L67.4567223,27.3449995 L67.4308682,27.1338838 C67.1772792,24.8868602 67.555045,23.6565355 68.4744178,22.984713 L68.5527223,22.9299995 L69.8862307,22.658782 C71.6952196,22.2967571 73.5291395,21.9485347 75.3879866,21.6141222 L77.0837223,21.3139995 L77.4358589,21.3016585 C78.8008364,21.275687 79.549756,21.5297462 79.8992719,21.9260641 L80.0609028,22.1309444 Z" id="Path-2-Copy-7" fill-rule="nonzero" transform="translate(74.365301, 25.802221) rotate(-8.000000) translate(-74.365301, -25.802221) "></path>
            <path d="M49.933094,24.5591625 L44.4940903,25.4057003 L42.6792937,25.6999627 L40.9405548,25.9937772 L39.7668561,26.2046951 L39.0068416,26.3526047 L38.538723,26.4532459 L38.267912,26.5186644 C38.2416078,26.5254611 38.2165603,26.5321014 38.1927643,26.5385863 C36.0860128,27.112723 34.1729678,28.7117753 33.1223458,30.6463498 L32.7742512,31.3322396 L32.5867215,31.7171375 C32.5575406,31.7785286 32.529037,31.8393393 32.5006715,31.9007681 C31.3737984,34.3411443 31.027278,36.6790731 31.9579194,39.3114244 L32.0693638,39.6232355 L32.2817422,40.1955233 L32.4836553,40.7069052 C32.6817552,41.1908501 32.8705448,41.5970079 33.0691874,41.9660938 C33.4310829,42.6385102 33.82474,43.1839046 34.3252239,43.7248537 L34.5560812,43.9678896 L34.8155341,44.2252231 L35.3279521,44.7130083 C37.2264182,46.5046855 39.7709608,46.7667788 43.1916644,46.2852113 L44.3839985,46.1031582 L46.2485117,45.7901496 L47.9873775,45.4802669 L48.9460463,45.3036255 L50.5103827,45.0054876 L51.6927963,44.7700682 L52.7518562,44.5487074 L53.3815782,44.4102653 C53.4811196,44.3878555 53.5778898,44.3657886 53.6717916,44.3440811 C53.9655798,44.2761655 54.24745,44.1643456 54.5078994,44.0123911 L54.8041865,43.8378663 L55.3559533,43.5018584 C57.6340114,42.0783003 58.4869203,41.0318774 59.5900471,38.6053106 C60.7139568,36.1330275 60.6550033,33.9512808 59.9146919,31.3989421 C59.3128032,29.3238373 58.3115392,27.812693 56.369037,26.2171879 C54.6202875,24.7808248 52.4094214,24.2496271 49.933094,24.5591625 Z M52.560774,30.8536881 C53.5715138,31.6838752 53.8890439,32.1631033 54.1521975,33.0703662 C54.5306426,34.3751144 54.5526114,35.1881343 54.1279686,36.1222282 L53.9628203,36.4824526 L53.8096485,36.8020317 C53.492623,37.4376764 53.2483325,37.7285334 52.6132909,38.1476767 L52.2907614,38.3519591 L51.8807223,38.5969995 L51.1537575,38.7544596 L49.7404378,39.0421417 L48.5457208,39.2735595 L46.9181676,39.5762974 L45.7140082,39.7922413 L44.1165563,40.0673816 L43.1387654,40.2246177 L42.995903,40.2458195 C41.8625147,40.431002 40.9577282,40.5048094 40.250612,40.4620387 L40.0954276,40.450684 L39.8350457,40.4218467 C39.7971949,40.4166543 39.7621146,40.4113671 39.7298009,40.4061325 L39.4460912,40.3494168 L38.8624476,39.7890465 L38.7293905,39.6501369 C38.566135,39.4736819 38.4695213,39.3398279 38.3525873,39.1225599 L38.2455301,38.9106392 C38.2269394,38.8717048 38.2079464,38.830882 38.1885086,38.7880486 L38.0662029,38.5059438 L37.9311777,38.1697234 L37.7813903,37.7735265 L37.6147975,37.3114921 C37.2925915,36.400121 37.4158574,35.5684612 37.9479644,34.4161211 L38.0735101,34.1522502 L38.3643093,33.5687765 C38.6410854,33.0113274 39.2780761,32.4616298 39.7703642,32.3274703 L40.1345772,32.2429744 L40.5862831,32.1528293 L41.5268104,31.9808918 L42.7774504,31.7659916 L46.5218191,31.1588931 L50.7585257,30.5015471 C51.5358973,30.4054132 52.0731467,30.5109205 52.4591758,30.7771315 L52.560774,30.8536881 Z" id="Path-3-Copy-7" fill-rule="nonzero" transform="translate(45.938662, 35.485832) rotate(-8.000000) translate(-45.938662, -35.485832) "></path>
            <path d="M68.1031062,39.6997701 C67.3260006,39.8768905 66.5206079,40.0954552 65.6474562,40.3588352 L64.7855131,40.62602 L63.5164125,41.036096 C60.0683124,42.1528861 58.8812781,44.8740971 58.4484635,49.0221566 C58.44068,49.0967526 58.4356967,49.1716144 58.433524,49.2465839 C58.3394339,52.4931864 58.8647147,54.132447 61.2074446,56.2918492 C61.3761831,56.4473833 61.5622106,56.5830425 61.7618773,56.6961652 C62.7630418,57.2633824 63.6508447,57.3526003 65.1323624,57.1782963 L65.649161,57.1107292 C65.7392824,57.0979394 65.8314786,57.0844098 65.925871,57.0701772 L66.7333431,56.941222 L68.7238922,56.5976015 L68.8098902,56.5878949 L68.858691,56.5848966 C70.985665,56.4686125 74.8757193,55.0335106 76.292004,53.4009986 C77.6021475,51.8908327 78.0851735,50.2107216 78.3510039,47.663025 C78.6739978,44.5674778 77.8811178,41.9476188 75.122741,40.0608413 C74.9994329,39.9764964 74.8699967,39.9014801 74.7355126,39.8364186 C72.9672791,38.9809715 70.8492755,39.0738545 68.1031062,39.6997701 Z M72.0037223,45.2309995 L72.035935,45.2615824 C72.4015932,45.6396504 72.4788501,46.1255804 72.383401,47.0403566 L72.3552362,47.2957546 L72.29482,47.7593405 L72.2288338,48.1629386 C72.1256043,48.7251203 72.0030854,49.0968277 71.8590696,49.331992 L71.8117223,49.4019995 L71.7063062,49.4714352 L71.5350955,49.5689939 C71.2336675,49.7316584 70.8343344,49.9068631 70.3879803,50.0715301 L70.0457982,50.1921827 L69.7086817,50.3013077 L69.3889755,50.3966145 L69.0990247,50.4758123 L68.8511741,50.5366102 C68.8140599,50.5450826 68.7792142,50.5526929 68.7468942,50.5593934 L68.5853407,50.5882963 L68.3626031,50.6054147 L68.0014823,50.6438925 L67.5868156,50.7037312 L66.9355809,50.8136344 L65.7411955,51.0238177 L65.3126392,51.09315 L64.8801823,51.1552954 L64.6087223,51.1879995 L64.5830048,51.14775 C64.4617305,50.9412078 64.4211507,50.7150808 64.4147695,50.3334119 L64.4156693,50.0158717 L64.4277223,49.5369995 L64.4435984,49.3955029 L64.5035451,48.9350029 L64.569623,48.5238477 L64.6413772,48.1602203 C64.8274791,47.3090476 65.0625321,46.8864142 65.3145537,46.7645646 L65.3720239,46.7419295 L66.313565,46.436579 L67.1264898,46.1804619 L67.3801994,46.103189 C68.1309953,45.8767168 68.8082593,45.6929232 69.4364507,45.5497438 C70.2547692,45.3632301 70.9545442,45.2548144 71.5035907,45.2307365 L71.7469263,45.2252158 L72.0037223,45.2309995 Z" id="Path-6-Copy-7" fill-rule="nonzero" transform="translate(68.421009, 48.235356) rotate(-8.000000) translate(-68.421009, -48.235356) "></path>
            <path d="M49.2131777,27.897377 C50.1939729,27.6042621 50.3593881,27.7720889 50.9272476,27.9454876 C51.4951072,28.1188864 53.7327528,29.208628 54.7627333,31.9746445 C55.449387,33.8186555 55.3509938,35.6092195 54.4675536,37.3463365 C53.8376471,38.7054531 52.5861884,39.3891612 50.7131777,39.3974608 C47.9036616,39.4097426 45.1331882,38.05488 44.7131777,34.397377 C44.2931672,30.7398739 48.2671996,28.1800867 49.2131777,27.897377 Z" id="Path-4-Copy-7" transform="translate(49.947691, 33.567594) rotate(-8.000000) translate(-49.947691, -33.567594) "></path>
            <path d="M76.0885924,19.3124943 C79.0712347,18.4685095 81.1007759,18.4685095 82.1772158,19.3124943 C83.6372123,20.4572073 84.2967503,21.1405505 84.1259824,22.8052362 C84.1078922,22.9815832 83.3586635,25.5152257 82.1900177,28.0156398 C81.4109205,29.6825825 80.5610111,30.281534 79.6402894,29.8124943 C75.5812071,29.479161 73.4306748,27.8411297 73.1886924,24.8984004 C72.9467101,21.9556712 73.9133434,20.0937025 76.0885924,19.3124943 Z" id="Path-5-Copy-7" transform="translate(78.652356, 24.323247) rotate(-8.000000) translate(-78.652356, -24.323247) "></path>
        </g>
        <path d="M4.552,111.696 L4.552,112.464 C4.552,114.672 4.912,115.608 6.016,116.304 C7.144,117 9.112,117.24 14.056,117.24 C18.808,117.24 20.848,117.12 21.808,116.76 C23.464,116.136 24.136,114.768 24.136,111.984 C24.136,109.752 23.728,108.672 22.624,107.952 C21.592,107.304 20.56,107.184 15.28,107.016 C11.896,106.92 10.576,106.848 10.144,106.728 C9.64,106.608 9.424,106.296 9.424,105.696 C9.424,104.52 9.76,104.424 13.864,104.424 C17.512,104.424 18.064,104.472 18.448,104.784 C18.736,105 18.808,105.216 18.832,106.032 L23.536,106.032 C23.56,105.72 23.56,105.408 23.56,105.288 C23.56,103.392 23.176,102.36 22.216,101.736 C21.088,100.968 19.384,100.752 14.8,100.752 C9.016,100.752 7.624,100.896 6.376,101.568 C5.248,102.192 4.696,103.632 4.696,106.008 C4.696,107.616 4.984,108.648 5.584,109.368 C6.304,110.184 7.432,110.52 9.76,110.592 C11.224,110.664 12.472,110.736 13.648,110.76 L17.464,110.904 C19.024,110.928 19.408,111.168 19.408,112.128 C19.408,112.776 19.264,113.136 18.904,113.304 C18.472,113.52 17.968,113.544 14.176,113.544 C10.744,113.544 10.216,113.496 9.76,113.208 C9.376,112.968 9.28,112.656 9.28,111.696 L4.552,111.696 Z" id="Path" fill="#FFFFFF" fill-rule="nonzero"></path>
        <path d="M25.672,121.728 L29.92,121.728 L29.92,115.536 L30.112,115.536 C30.952,116.88 32.032,117.288 34.912,117.288 C40.552,117.288 41.68,116.304 41.68,111.384 C41.68,108.528 41.416,107.424 40.504,106.608 C39.544,105.696 38.032,105.36 35.104,105.36 C31.84,105.36 30.64,105.792 29.896,107.184 L29.68,107.184 L29.68,105.648 L25.672,105.648 L25.672,121.728 Z M33.832,108.552 C36.856,108.552 37.432,108.96 37.432,111.144 C37.432,112.632 37.288,113.232 36.784,113.592 C36.352,113.928 35.296,114.096 33.688,114.096 C30.544,114.096 29.92,113.64 29.92,111.456 C29.92,108.936 30.424,108.552 33.832,108.552 Z" id="Shape" fill="#FFFFFF" fill-rule="nonzero"></path>
        <path d="M47.608,109.2 C47.752,108.168 48.04,108.072 51.088,108.072 C53.656,108.072 53.992,108.312 53.992,110.064 L53.992,110.664 L53.8,110.664 C53.152,109.944 52.552,109.776 50.608,109.776 C47.56,109.776 46.336,109.848 45.352,110.112 C43.696,110.568 42.928,111.696 42.928,113.736 C42.928,116.448 44.104,117.288 47.872,117.288 C50.608,117.288 51.688,117.192 52.408,116.904 C53.176,116.592 53.632,116.184 53.968,115.44 L54.16,115.44 L54.16,117 L58.24,117 L58.24,110.16 C58.24,108.096 58,107.232 57.28,106.464 C56.32,105.504 55.456,105.336 51.712,105.336 C48.304,105.336 46.336,105.552 45.376,106.008 C44.032,106.656 43.504,107.544 43.384,109.2 L47.608,109.2 Z M50.464,112.176 C52.192,112.176 52.912,112.2 53.176,112.296 C53.656,112.464 53.92,112.824 53.92,113.28 C53.92,114.288 53.056,114.576 50.104,114.576 C47.848,114.576 47.176,114.312 47.176,113.376 C47.176,112.44 47.896,112.176 50.464,112.176 Z" id="Shape" fill="#FFFFFF" fill-rule="nonzero"></path>
        <path d="M61.36,103.032 L61.36,105.648 L59.128,105.648 L59.128,108.696 L61.36,108.696 L61.36,112.008 C61.36,113.424 61.36,113.424 61.384,113.712 C61.432,115.008 61.672,115.632 62.272,116.232 C63.112,117.048 64.216,117.288 66.928,117.288 C69.856,117.288 71.152,116.904 72.016,115.848 C72.664,115.008 72.832,114.312 72.88,112.152 L68.992,112.152 L68.992,112.608 C68.992,113.952 68.656,114.264 67.288,114.264 C66.472,114.264 66.04,114.096 65.824,113.712 C65.632,113.4 65.608,113.232 65.608,112.008 L65.608,108.696 L72.328,108.696 L72.328,105.648 L65.608,105.648 L65.608,103.032 L61.36,103.032 Z" id="Path" fill="#FFFFFF" fill-rule="nonzero"></path>
        <path d="M73.984,105.648 L73.984,117 L78.232,117 L78.232,105.648 L73.984,105.648 Z M73.984,100.992 L73.984,104.184 L78.232,104.184 L78.232,100.992 L73.984,100.992 Z" id="Shape" fill="#FFFFFF" fill-rule="nonzero"></path>
        <path d="M84.472,109.2 C84.616,108.168 84.904,108.072 87.952,108.072 C90.52,108.072 90.856,108.312 90.856,110.064 L90.856,110.664 L90.664,110.664 C90.016,109.944 89.416,109.776 87.472,109.776 C84.424,109.776 83.2,109.848 82.216,110.112 C80.56,110.568 79.792,111.696 79.792,113.736 C79.792,116.448 80.968,117.288 84.736,117.288 C87.472,117.288 88.552,117.192 89.272,116.904 C90.04,116.592 90.496,116.184 90.832,115.44 L91.024,115.44 L91.024,117 L95.104,117 L95.104,110.16 C95.104,108.096 94.864,107.232 94.144,106.464 C93.184,105.504 92.32,105.336 88.576,105.336 C85.168,105.336 83.2,105.552 82.24,106.008 C80.896,106.656 80.368,107.544 80.248,109.2 L84.472,109.2 Z M87.328,112.176 C89.056,112.176 89.776,112.2 90.04,112.296 C90.52,112.464 90.784,112.824 90.784,113.28 C90.784,114.288 89.92,114.576 86.968,114.576 C84.712,114.576 84.04,114.312 84.04,113.376 C84.04,112.44 84.76,112.176 87.328,112.176 Z" id="Shape" fill="#FFFFFF" fill-rule="nonzero"></path>
        <polygon id="Path" fill="#FFFFFF" fill-rule="nonzero" points="96.952 100.992 96.952 117 101.2 117 101.2 100.992"></polygon>
        <polygon id="Path" fill="#FFFFFF" fill-rule="nonzero" points="4 122.992 4 127.072 11.128 127.072 11.128 139 16.24 139 16.24 127.072 23.368 127.072 23.368 122.992"></polygon>
        <path d="M24.328,122.992 L24.328,139 L28.576,139 L28.576,134.152 C28.576,131.128 29.176,130.528 32.176,130.528 C34.96,130.528 35.464,130.984 35.464,133.456 L35.464,139 L39.712,139 L39.712,133.456 C39.712,130.792 39.448,129.76 38.464,128.752 C37.48,127.744 36.064,127.336 33.544,127.336 C30.856,127.336 29.464,127.936 28.768,129.376 L28.576,129.376 L28.576,122.992 L24.328,122.992 Z" id="Path" fill="#FFFFFF" fill-rule="nonzero"></path>
        <path d="M41.56,127.648 L41.56,139 L45.808,139 L45.808,127.648 L41.56,127.648 Z M41.56,122.992 L41.56,126.184 L45.808,126.184 L45.808,122.992 L41.56,122.992 Z" id="Shape" fill="#FFFFFF" fill-rule="nonzero"></path>
        <path d="M47.728,127.648 L47.728,139 L51.976,139 L51.976,134.464 C51.976,132.376 52.072,131.872 52.6,131.296 C53.104,130.768 53.944,130.552 55.504,130.552 C57.064,130.552 57.904,130.744 58.36,131.176 C58.816,131.608 58.888,132.016 58.888,133.84 L58.888,139 L63.136,139 L63.136,133.84 C63.136,130.72 62.92,129.856 61.888,128.8 C60.88,127.744 59.464,127.36 56.776,127.36 C54.04,127.36 52.72,127.912 51.952,129.376 L51.736,129.376 L51.736,127.648 L47.728,127.648 Z" id="Path" fill="#FFFFFF" fill-rule="nonzero"></path>
        <polygon id="Path" fill="#FFFFFF" fill-rule="nonzero" points="64.984 122.992 64.984 139 69.232 139 69.232 134.44 70.312 134.44 74.872 139 80.512 139 73.84 132.928 79.72 127.648 74.032 127.648 70.144 131.344 69.232 131.344 69.232 122.992"></polygon>
        <path d="M80.992,127.648 L80.992,139 L85.24,139 L85.24,127.648 L80.992,127.648 Z M80.992,122.992 L80.992,126.184 L85.24,126.184 L85.24,122.992 L80.992,122.992 Z" id="Shape" fill="#FFFFFF" fill-rule="nonzero"></path>
        <path d="M87.16,127.648 L87.16,139 L91.408,139 L91.408,134.464 C91.408,132.376 91.504,131.872 92.032,131.296 C92.536,130.768 93.376,130.552 94.936,130.552 C96.496,130.552 97.336,130.744 97.792,131.176 C98.248,131.608 98.32,132.016 98.32,133.84 L98.32,139 L102.568,139 L102.568,133.84 C102.568,130.72 102.352,129.856 101.32,128.8 C100.312,127.744 98.896,127.36 96.208,127.36 C93.472,127.36 92.152,127.912 91.384,129.376 L91.168,129.376 L91.168,127.648 L87.16,127.648 Z" id="Path" fill="#FFFFFF" fill-rule="nonzero"></path>
        <path d="M116.104,127.648 L116.104,129.136 L115.912,129.136 C115.024,127.72 114.016,127.36 111.064,127.36 C108.928,127.36 107.344,127.552 106.48,127.888 C104.704,128.584 104.104,129.88 104.104,132.952 C104.104,135.808 104.44,136.96 105.568,137.824 C106.528,138.568 108.04,138.856 111.016,138.856 C113.824,138.856 114.856,138.472 115.72,137.08 L115.888,137.08 L115.888,138.088 C115.888,139.672 115.816,140.032 115.408,140.488 C114.904,141.064 114.088,141.232 111.856,141.232 C109.624,141.232 109,141.016 108.76,140.152 L108.712,140.032 L104.392,140.032 C104.512,141.4 104.872,142.264 105.64,142.936 C106.696,143.872 108.184,144.184 111.784,144.184 C114.448,144.184 116.08,144.016 117.328,143.584 C118.456,143.2 119.368,142.312 119.752,141.232 C120.088,140.296 120.112,140.008 120.112,138.088 L120.112,127.648 L116.104,127.648 Z M112.264,130.552 C113.488,130.552 114.472,130.672 114.976,130.912 C115.648,131.2 115.864,131.752 115.864,133.12 C115.864,134.272 115.72,134.776 115.264,135.112 C114.784,135.472 113.704,135.664 112.072,135.664 C108.952,135.664 108.352,135.256 108.352,133.072 C108.352,130.96 109,130.552 112.264,130.552 Z" id="Shape" fill="#FFFFFF" fill-rule="nonzero"></path>
        <path d="M300.692,131 L317.972,131 C326.036,130.964 326.432,130.928 327.764,130.46 C329.924,129.74 330.824,127.976 330.824,124.556 C330.824,120.704 329.852,119.3 326.684,118.76 C329.096,118.076 329.924,116.672 329.924,113.252 C329.924,108.896 328.628,107.384 324.704,107.096 C323.624,107.024 323.624,107.024 317.936,106.988 L300.692,106.988 L300.692,131 Z M307.64,116.456 L307.64,112.64 L317.936,112.64 C321.248,112.676 321.356,112.676 321.752,112.748 C322.472,112.928 322.832,113.468 322.832,114.476 C322.832,115.34 322.544,115.952 322.04,116.168 C321.572,116.384 320.528,116.456 317.936,116.456 L307.64,116.456 Z M307.64,125.24 L307.64,121.244 L317.972,121.244 C322.184,121.244 322.184,121.244 322.58,121.352 C323.408,121.532 323.732,122.036 323.732,123.152 C323.732,124.16 323.48,124.7 322.868,124.952 C322.328,125.204 322.328,125.204 317.972,125.24 L307.64,125.24 Z" id="Shape" fill="#FFFFFF" fill-rule="nonzero"></path>
        <polygon id="Path" fill="#FFFFFF" fill-rule="nonzero" points="333.38 106.988 333.38 131 358.112 131 358.112 124.88 341.048 124.88 341.048 106.988"></polygon>
        <path d="M376.22,106.628 C366.248,106.628 363.944,106.916 362.108,108.284 C360.308,109.688 359.732,112.172 359.732,118.832 C359.732,125.852 360.272,128.264 362.108,129.704 C363.944,131.072 366.284,131.36 376.292,131.36 C386.156,131.36 388.496,131.072 390.332,129.704 C392.168,128.264 392.708,125.888 392.708,118.976 C392.708,112.1 392.168,109.724 390.332,108.284 C388.496,106.916 386.228,106.628 376.22,106.628 Z M376.22,112.856 C382.844,112.856 383.708,112.964 384.536,113.936 C385.184,114.728 385.4,116.168 385.4,119.66 C385.4,122.54 385.148,123.62 384.32,124.268 C383.384,124.988 382.088,125.132 376.292,125.132 C370.352,125.132 369.056,124.988 368.12,124.268 C367.256,123.584 367.04,122.612 367.04,119.624 C367.04,116.564 367.184,115.196 367.616,114.368 C368.336,112.964 369.056,112.856 376.22,112.856 Z" id="Shape" fill="#FFFFFF" fill-rule="nonzero"></path>
        <path d="M410.132,117.392 L410.132,122.18 L419.744,122.18 C419.744,124.052 419.636,124.484 419.24,124.88 C418.556,125.492 417.224,125.6 410.996,125.6 L406.712,125.528 C404.624,125.456 403.976,125.348 403.4,124.844 C402.572,124.232 402.356,122.9 402.356,118.904 C402.356,112.676 402.392,112.64 411.032,112.64 C416.504,112.64 418.232,112.784 418.952,113.288 C419.42,113.612 419.492,113.936 419.528,115.304 L426.836,115.304 C426.8,111.776 426.512,110.3 425.504,109.112 C423.92,107.24 420.572,106.628 411.68,106.628 C403.292,106.628 399.404,107.096 397.676,108.32 C395.66,109.724 395.048,112.136 395.048,118.616 C395.048,126.5 395.444,128.264 397.568,129.668 C399.584,131.036 402.176,131.36 410.384,131.36 C416.864,131.36 419.42,131.216 421.904,130.712 C424.784,130.136 426.332,128.48 426.62,125.672 C426.728,124.52 426.872,120.344 426.872,118.04 L426.872,117.392 L410.132,117.392 Z" id="Path" fill="#FFFFFF" fill-rule="nonzero"></path>
    </g>
</svg>